<?xml version="1.0" encoding="utf-8" ?><svg xmlns="http://www.w3.org/2000/svg" xmlns:xlink="http://www.w3.org/1999/xlink" width="1024" height="1024" viewBox="63 215 892 594"><path fill="#FBFAFB" d="M344.483 235.505C349.703 234.914 359.183 235.19 364.815 235.19L401.516 235.202L524.848 235.268L694.168 235.3L748.425 235.127C758.251 235.087 768.058 234.872 777.881 235.165C786.617 235.427 790.565 238.599 796.091 244.8C808.173 249.262 816.354 264.079 818.075 276.291C819.484 283.076 821.526 292.409 821.501 299.303C822.682 311.768 820.685 319.634 820.51 331.025C842.067 331.076 864.397 331.392 885.893 331.104C885.895 337.571 885.934 344.038 886.009 350.504C879.474 350.052 872.995 350.443 866.438 350.518L839.679 350.621C836.231 350.65 827.094 351.265 824.482 350.432C823.796 352.68 823.703 357.314 823.562 359.836C840.531 359.774 857.5 359.839 874.468 360.033C874.507 364.436 875.115 376.486 873.545 380.049C870.229 381.881 836.391 381.666 831.884 380.922L830.841 381.488C830.514 384.225 830.986 385.236 831.082 387.829C836.339 387.427 870.981 387.166 874.029 388.411C873.924 394.926 873.885 401.442 873.912 407.958C863.048 407.793 852.181 407.729 841.315 407.769C836.428 407.77 827.912 408.055 823.466 407.586C823.541 416.78 822.44 426.411 822.647 435.378C823.653 478.938 816.392 521.853 817.545 565.427C817.616 568.048 817.516 570.753 817.697 573.362C822.248 573.986 825.425 574.598 829.811 575.813C845.016 580.024 861.32 594.622 855.394 612.135C848.94 631.53 834.642 631.161 824.898 642.668L823.107 644.784C819.114 648.85 815.834 653.35 812.477 657.943C809.203 653.544 805.854 649.901 802.726 645.777L801.523 645.623C790.639 649.894 782.706 652.727 771.079 652.037C769.321 651.932 760.186 651.91 758.673 652.033C760.204 652.911 761.399 652.525 763.157 652.911C768.813 653.176 774.707 653.029 780.386 652.979L773.233 659.696C769.577 664.228 767.966 666.881 766.542 672.818C751.55 675.52 736.693 677.476 721.407 680.311C732.924 685.195 744.382 693.58 744.089 707.636C744.115 708.859 744.227 711.109 744.099 712.226C743.586 730.226 728.354 751.143 709.97 753.874C708.432 754.103 704.883 754.551 703.584 754.98L702.409 754.817C674.757 756.422 646.461 728.201 655.347 700.128C658.093 691.455 668.379 685.029 676.076 681.355C671.034 680.694 666.88 677.886 662.477 677.661C644.515 676.744 627.43 676.866 609.482 677.836C598.996 678.402 587.74 677.85 577.169 678.068C572.168 677.817 566.394 678.918 561.475 678.608C541.197 677.33 520.96 678.487 500.739 678.256C476.808 677.984 452.558 675.359 428.672 674.566C429.041 678.18 428.865 686.154 428.874 689.952L428.956 717.442L428.99 754.876C428.965 763.277 428.909 771.79 428.186 780.14C427.933 783.328 427.046 786.609 423.625 787.819C416.483 790.345 405.788 789.05 398.174 788.974L364.516 788.969L235.582 788.918L174.883 788.837C166.916 788.844 147.04 789.443 139.956 788.012C138.275 786.511 135.926 784.562 135.698 782.287C134.992 775.223 135.204 767.21 135.222 760.189L135.316 715.839L135.161 640.151C135.121 626.265 135.105 612.392 135.281 598.5C135.43 586.653 147.172 589.112 155.424 588.751C159.059 588.592 163.035 588.773 166.704 588.787L202.42 588.838C210.099 588.838 219.43 589.024 226.992 588.433L227.598 588.381C226.924 580.767 227.37 566.305 227.389 558.35L227.443 501.845C215.015 501.334 201.279 502.495 188.591 501.781L188.682 500.7C200.566 500.142 215.389 500.529 227.497 500.545C227.381 477.351 227.404 454.157 227.567 430.963C220.341 430.721 195 430.364 188.679 431.317L189.083 430.08C193.305 429.145 223.196 429.292 227.483 430.108L227.45 360.31L220.827 360.39C219.385 359.471 215.24 359.729 213.546 360.261C211.258 360.459 192.315 360.342 190.078 360.149L191.248 359.773L189.918 359.133C201.964 358.792 215.303 359.152 227.502 359.101C227.642 331.697 226.621 300.467 227.554 273.385C227.38 262.746 226.599 249.83 234.482 241.389C236.042 239.719 240.281 236.639 242.54 236.368C253.565 235.049 266.556 235.461 277.685 235.463L344.483 235.505Z"/><path fill="#131444" d="M227.598 588.381L228.515 588.968C228.514 599.123 228.513 609.283 228.423 619.437C228.343 628.575 228.712 637.887 235.85 644.627C239.836 647.635 243.794 650.806 248.941 651.346C257.482 652.242 267.357 651.768 275.986 651.689L321.644 651.532C325.801 651.526 344.005 652.243 346.797 651.632C347.398 649.799 347.25 649.141 347.164 647.244C347.304 648.919 347.139 650.869 348.067 651.885L348.247 651.937L405.751 651.603C413.523 651.625 421.361 652.163 429.152 652.062L429.049 652.961C428.964 658.152 429.25 670.065 428.672 674.566C429.041 678.18 428.865 686.154 428.874 689.952L428.956 717.442L428.99 754.876C428.965 763.277 428.909 771.79 428.186 780.14C427.933 783.328 427.046 786.609 423.625 787.819C416.483 790.345 405.788 789.05 398.174 788.974L364.516 788.969L235.582 788.918L174.883 788.837C166.916 788.844 147.04 789.443 139.956 788.012C138.275 786.511 135.926 784.562 135.698 782.287C134.992 775.223 135.204 767.21 135.222 760.189L135.316 715.839L135.161 640.151C135.121 626.265 135.105 612.392 135.281 598.5C135.43 586.653 147.172 589.112 155.424 588.751C159.059 588.592 163.035 588.773 166.704 588.787L202.42 588.838C210.099 588.838 219.43 589.024 226.992 588.433L227.598 588.381Z"/><path fill="#2E45A7" d="M235.85 644.627C239.836 647.635 243.794 650.806 248.941 651.346C257.482 652.242 267.357 651.768 275.986 651.689L321.644 651.532C325.801 651.526 344.005 652.243 346.797 651.632C347.398 649.799 347.25 649.141 347.164 647.244C347.304 648.919 347.139 650.869 348.067 651.885L348.247 651.937L405.751 651.603C413.523 651.625 421.361 652.163 429.152 652.062L429.049 652.961C428.964 658.152 429.25 670.065 428.672 674.566C428.323 673.088 428.415 667.988 428.408 666.167C405.442 668.558 378.299 666.664 355.113 666.526C338.973 666.43 321.446 667.209 305.393 667.019C297.891 666.931 257.978 665.712 253.042 667.548C252.999 665.811 253.171 664.163 252.37 662.687C248.627 661.285 234.643 661.602 229.742 661.484C230.401 659.929 231.512 657.428 230.8 655.893C226.515 654.214 202.584 655.385 195.832 654.911L195.326 654.872C194.158 650.736 193.096 648.941 197.412 646.69C206.115 645.322 230.191 648.56 235.85 644.627Z"/><path fill="#FBFAFB" d="M197.412 646.69C208.768 647.759 222.758 646.202 234.502 647.217C234.556 649.516 234.834 651.472 233.993 653.563C230.386 656.028 201.979 653.53 195.326 654.872C194.158 650.736 193.096 648.941 197.412 646.69Z"/><path fill="#FBFAFB" d="M229.742 661.484C234.643 661.602 248.627 661.285 252.37 662.687C253.171 664.163 252.999 665.811 253.042 667.548C252.71 668.639 252.871 668.248 252.12 669.177C246.592 670.559 226.692 669.856 219.994 669.782L219.986 661.594L229.742 661.484Z"/><path fill="#FBFAFB" d="M232.48 693.117L234.697 693.062C245.027 692.854 266.023 692.776 277.254 693.366C277.524 693.625 277.793 693.883 278.062 694.142C278.682 696.582 278.201 698.481 277.869 701.003L248.838 701.027C243.994 701.027 238.4 701.22 233.62 700.647C232.385 700.499 232.712 700.483 231.957 699.383C231.509 697.015 232.014 695.487 232.48 693.117Z"/><path fill="#FBFAFB" d="M192.45 676.5C201.253 676.458 210.058 676.393 218.86 676.461C226.142 676.516 225.718 678.265 225.327 684.511C219.896 684.538 197.186 685.083 193.158 683.879C191.485 681.709 192.139 679.179 192.45 676.5Z"/><path fill="#FBFAFB" d="M241.796 734.262C247.028 734.078 263.653 733.7 267.999 735.139C272.254 741.004 267.66 742.757 262.385 742.512C254.782 742.546 245.682 742.971 238.148 742.016C235.981 741.742 236.286 736.724 237.067 735.078C238.905 733.942 239.259 734.345 241.796 734.262Z"/><path fill="#FBFAFB" d="M193.112 729.591C201.358 729.515 209.607 729.422 217.853 729.447C225.13 729.469 224.89 731.166 224.237 737.514C213.925 737.482 202.709 737.785 192.486 737.259C192.474 734.06 192.403 732.794 193.112 729.591Z"/><path fill="#FBFAFB" d="M305.001 715.524C314.319 715.248 325.308 715.247 334.678 715.582C336.427 715.644 336.323 715.946 337.146 716.999C337.674 719.278 337.228 720.75 336.842 723.063C329.731 723.295 314.132 723.852 306.638 722.905C306.252 722.544 305.866 722.183 305.481 721.822C304.526 719.721 304.882 717.887 305.001 715.524Z"/><path fill="#FBFAFB" d="M218.084 745.75C220.151 745.551 220.426 745.483 222.432 745.838C223.992 746.884 225.143 748.018 225.481 749.876C226.18 754.14 220.183 753.801 217.522 753.811C211.436 753.835 205.367 753.795 199.293 753.763L192.532 753.763C192.453 751.877 192.183 746.905 193.258 746.598C197.122 745.495 214.198 745.95 218.084 745.75Z"/><path fill="#294EF2" d="M263.065 715.494L294.539 715.5L294.434 722.942C285.039 723.012 274.558 723.313 265.145 722.799C263.439 722.706 263.586 722.416 262.75 721.299C262.256 718.962 262.636 717.865 263.065 715.494Z"/><path fill="#FBFAFB" d="M220.069 715.588C228.336 715.502 236.631 715.381 244.899 715.411C247.361 715.42 249.873 715.189 251.436 717.159C251.909 719.542 251.682 720.109 251.299 722.583C243.89 723.317 227.504 723.423 220.081 722.597C219.851 720.081 219.977 718.096 220.069 715.588Z"/><path fill="#FBFAFB" d="M166.955 606.734C172.869 606.713 186.967 605.389 191.092 608.248C191.935 610.02 191.784 609.096 191.416 611.137C189.822 611.908 188.033 611.773 186.151 611.885C180.768 611.857 164.538 612.702 161.058 609.978C160.524 608.378 160.538 609.189 161.233 607.469C162.458 606.632 165.323 606.79 166.955 606.734Z"/><path fill="#FBFAFB" d="M194.274 716.214C197.933 715.97 209.854 715.472 210.716 720.024C208.557 722.207 205.254 721.672 202.375 721.611C198.637 721.669 188.73 722.552 186.559 719.768C186.695 717.879 186.401 718.757 187.703 717.134C189.772 716.07 191.882 716.279 194.274 716.214Z"/><path fill="#FBFAFB" d="M186.802 634.506C191.345 634.46 206.149 633.891 209.375 635.254C210.46 637.146 210.068 636.929 210.013 639.497C204.746 639.438 190.981 640.69 187.461 638.329C186.419 636.453 186.754 636.962 186.802 634.506Z"/><path fill="#2E45A7" d="M191.827 664.616C195.912 664.554 206.852 663.865 209.744 665.679C210.1 667.301 210.085 666.44 209.161 668.342C204.594 668.806 196.029 670.225 192.044 668.225C191.207 666.514 191.515 666.89 191.827 664.616Z"/><path fill="#FBFAFB" d="M185.534 760.539C189.954 760.446 200.285 759.234 204.078 761.329C204.656 761.648 204.83 763.603 205.005 764.494C200.076 764.484 191.98 765.498 187.297 763.957C185.788 763.46 185.863 762.076 185.534 760.539Z"/><path fill="#2E45A7" d="M187.601 697.055C193.17 697.12 198.86 696.269 204.119 698C205.373 699.412 204.97 698.997 205.049 701.421C200.204 701.439 192.168 702.615 188.272 700.68C187.198 699.019 187.553 699.43 187.601 697.055Z"/><path fill="#2E45A7" d="M161.936 634.544C166.149 634.462 175.843 633.712 178.886 635.417C179.837 637.041 179.509 636.136 179.379 638.395C174.521 639.041 167.317 639.908 162.896 638.038C161.694 636.564 162.084 636.877 161.936 634.544Z"/><path fill="#2E45A7" d="M166.456 697.194C169.795 697.065 177.73 696.078 179.758 699.061L179.419 700.28C177.99 701.747 178.852 701.258 176.625 701.566C173.015 701.652 163.994 702.691 162.124 699.636L162.554 698.3C163.613 697.28 164.913 697.37 166.456 697.194Z"/><path fill="#2E45A7" d="M168.215 760.227C171.743 760.124 175.623 759.918 178.334 762.512L178.064 763.519C176.037 764.713 174.86 764.49 172.448 764.513C167.855 764.652 164.314 765.214 160.41 762.65L160.543 761.581C162.806 760.032 165.497 760.277 168.215 760.227Z"/><path fill="#2E45A7" d="M161.037 716.51C166.228 716.511 172.496 715.479 177.154 717.018C178.432 718.41 178.016 718.095 178.174 720.506C173.85 720.509 165.595 721.82 162.057 719.647C161.391 719.238 161.25 717.497 161.037 716.51Z"/><path fill="#294EF2" d="M228.024 634.741L228.755 634.87C229.854 636.129 230.181 638.231 230.615 639.932L222.82 640.422C220.323 639.538 219.356 638.128 220.386 635.561C221.611 634.719 221.737 634.788 223.249 634.785L228.024 634.741Z"/><path fill="#FBFAFB" d="M228.145 284.808L347.113 284.835L347.128 532.015L347.246 607.553C347.216 618.17 346.356 637.342 347.164 647.244C347.25 649.141 347.398 649.799 346.797 651.632C344.005 652.243 325.801 651.526 321.644 651.532L275.986 651.689C267.357 651.768 257.482 652.242 248.941 651.346C243.794 650.806 239.836 647.635 235.85 644.627C228.712 637.887 228.343 628.575 228.423 619.437C228.513 609.283 228.514 599.123 228.515 588.968L228.34 360.661C228.496 335.605 227.385 310.089 228.145 284.808Z"/><path fill="#FBFAFB" d="M267.107 402.841C275.375 402.473 313.426 400.682 318.629 405.119C320.237 406.49 321.39 408.625 321.521 410.749C321.471 429.082 322.881 445.391 321.368 463.823C319.778 465.781 317.338 468.53 314.782 468.951C308.164 470.042 300.705 469.646 294.007 469.628L260.61 469.511C259.589 468.763 258.564 468.009 257.629 467.154C254.448 464.246 254.544 461.177 254.347 457.121C253.971 449.35 252.656 409.568 256.489 405.709C259.234 402.945 263.476 402.93 267.107 402.841Z"/><path fill="#4571F2" d="M260.61 469.511C259.589 468.763 258.564 468.009 257.629 467.154C254.448 464.246 254.544 461.177 254.347 457.121C253.971 449.35 252.656 409.568 256.489 405.709C259.234 402.945 263.476 402.93 267.107 402.841L267.379 404.008C261.315 404.193 259.535 403.792 255.619 408.784L255.513 408.916L255.463 442.273C255.46 448.526 254.881 455.468 256.033 461.62C256.355 463.338 256.81 464.614 258.108 465.847C259.175 466.859 260.366 467.562 261.816 467.855C268.108 469.129 276.206 468.125 282.682 468.114C292.155 468.098 301.789 468.585 311.24 468.006C314.108 467.831 316.869 467.21 318.784 464.867C321.906 461.047 320.892 418.199 320.119 412.046L321.521 410.749C321.471 429.082 322.881 445.391 321.368 463.823C319.778 465.781 317.338 468.53 314.782 468.951C308.164 470.042 300.705 469.646 294.007 469.628L260.61 469.511Z"/><path fill="#4571F2" d="M267.107 402.841C275.375 402.473 313.426 400.682 318.629 405.119C320.237 406.49 321.39 408.625 321.521 410.749L320.119 412.046C319.673 410.012 319.301 406.951 317.589 405.59C313.61 402.426 274.242 403.951 267.379 404.008L267.107 402.841Z"/><path fill="#090A0F" d="M276.718 420.511C278.828 420.475 282.852 420.485 284.714 420.388C303.19 419.423 301.517 422.699 300.556 439.035C300.381 442.011 300.484 449.216 300.488 452.953C299.127 451.635 297.593 450.314 296.173 449.042C293.756 447.222 291.412 445.678 288.894 444.007C284.43 446.382 279.786 449.58 275.518 452.37C275.245 443.951 274.255 427.998 276.718 420.511Z"/><path fill="#FBFAFB" d="M277.097 421.939C284.476 421.924 291.719 421.874 299.094 422.174C299.692 430.459 299.244 441.121 299.058 449.59L295.256 446.888C293.087 445.296 290.83 443.832 288.588 442.341C284.585 444.796 280.544 447.52 276.603 450.099C276.468 440.453 276.292 431.547 277.097 421.939Z"/><path fill="#4571F2" d="M261.966 320.171C278.439 319.49 295.631 319.991 312.017 320.235C325.348 320.434 321.687 337.409 321.828 346.323C322.008 357.671 322.422 369.656 321.273 380.901C318.485 384.195 317.835 385.036 313.745 386.496C302.504 386.714 269.084 388.338 260.57 385.358C258.624 384.677 256.739 383.624 255.892 381.649C253.271 375.545 252.734 330.868 255.408 325.22C256.772 322.341 259.07 321.166 261.966 320.171Z"/><path fill="#FBFAFB" d="M271.382 321.226C277.165 321.05 315.203 319.852 317.687 323.138C323.616 335.94 319.527 357.362 320.621 371.187C321.738 385.308 315.11 385.491 304.375 385.329C291.596 384.91 278.744 385.505 265.962 385.08C264.207 385.022 259.029 384.4 258.164 382.869C254.346 376.109 255.901 366.899 255.508 359.381C255.41 348.811 255.396 338.773 255.672 328.268C255.753 325.206 258.347 323.363 260.457 321.587L271.382 321.226Z"/><path fill="#294EF2" d="M285.885 337.252C294.457 335.906 302.497 341.766 303.838 350.34C305.179 358.913 299.313 366.949 290.739 368.285C282.173 369.619 274.145 363.759 272.806 355.194C271.466 346.628 277.32 338.598 285.885 337.252Z"/><path fill="#FBFAFB" d="M284.445 338.792C289.468 337.406 294.848 338.828 298.529 342.515C302.21 346.202 303.624 351.583 302.231 356.604C300.837 361.624 296.851 365.507 291.796 366.768C284.113 368.685 276.317 364.068 274.305 356.41C272.293 348.752 276.813 340.899 284.445 338.792Z"/><path fill="#090A0F" d="M280.166 349.243C283.358 348.933 294.336 348.657 297.386 349.25L297.642 350.077C294.753 350.641 283.734 350.568 280.818 350.145L280.166 349.243Z"/><path fill="#090A0F" d="M280.824 355.274C283.943 355.192 294.588 354.554 296.736 355.725L296.365 356.476C293.659 356.502 281.58 357.042 280.154 355.753L280.824 355.274Z"/><path fill="#4571F2" d="M263.526 483.663C272.409 483.332 311.529 482.183 317.267 484.947C319.04 485.801 319.879 487.948 320.419 489.726C322.156 495.457 322.696 535.868 319.83 540.5C318.375 542.85 315.018 543.805 312.54 544.483C304.031 544.586 263.208 546.364 257.958 542.25C255.982 540.702 255.136 537.838 254.644 535.485C253.144 528.324 252.565 492.908 255.979 487.812C257.833 485.045 260.4 484.269 263.526 483.663Z"/><path fill="#FBFAFB" d="M261.263 485.112C271.622 484.776 282.131 484.946 292.598 484.914C296.987 484.9 317.146 483.62 318.932 488.08C321.153 493.625 319.798 505.056 319.94 511.436C320.095 518.455 320.211 526.124 320.254 533.194C320.246 538.556 318.656 540.792 314.138 542.875C300.869 543.755 287.262 542.609 274.031 543.086C258.303 543.654 255.316 542.707 255.449 525.608C255.468 523.136 255.448 520.131 255.45 517.637L255.506 490.075C257.383 487.396 258.293 486.462 261.263 485.112Z"/><path fill="#090A0F" d="M288.014 499.066C289.835 501.833 289.816 501.118 292.78 502.48C295.477 503.721 298.086 505.288 298.947 508.292C299.851 511.443 300.124 511.555 302.797 513.146L302.986 513.973C300.917 514.377 300.799 514.282 300.08 516.229C297.633 522.853 295.348 522.701 289.753 525.606C288.176 526.425 288.459 527.416 288.062 529.222C286.205 523.704 284.046 525.287 278.697 521.917L278.193 521.593C276.992 518.951 276.807 516.729 275.147 514.29C273.901 514.17 273.853 514.229 272.727 513.73L272.882 512.891C278.188 510.898 275.266 508.491 278.915 504.876C282.122 501.7 285.047 503.113 288.014 499.066Z"/><path fill="#FBFAFB" d="M285.143 502.858L286.031 503.009C287.103 503.957 286.748 503.775 287.998 504.376C291.43 500.313 299.617 507.365 298.233 512.206C296.913 512.958 297.197 512.549 296.462 513.683L298.367 514.999C299.256 519.802 292.124 524.885 288.385 522.81C288.942 518.071 297.259 516.823 292.024 508.949C289.294 507.062 285.357 506.593 283.202 509.662C280.115 514.057 286.604 518.609 287.445 522.884L286.834 523.547C282.274 524.047 277.027 519.975 277.438 514.835C277.489 514.2 278.445 514.056 279.117 513.772L279.305 512.882C277.683 510.875 277.241 510.855 277.433 508.805C279.15 505.981 282.292 504.451 285.143 502.858Z"/><path fill="#FBFAFB" d="M285.936 509.279C287.399 508.528 289.155 508.636 290.514 509.562C291.872 510.487 292.616 512.082 292.452 513.718C292.288 515.354 291.242 516.769 289.726 517.406C287.504 518.34 284.941 517.351 283.922 515.166C282.903 512.981 283.792 510.382 285.936 509.279Z"/><path fill="#294EF2" d="M284.888 583.217C290.286 582.13 295.849 584.048 299.43 588.229C303.011 592.411 304.05 598.203 302.145 603.369C300.241 608.535 295.691 612.266 290.252 613.122C282.087 614.408 274.392 608.931 272.933 600.795C271.474 592.659 276.786 584.85 284.888 583.217Z"/><path fill="#F3F6F8" d="M287.166 591.782C288.216 592.444 287.868 592.114 288.48 593.257C288.412 594.788 288.305 595.329 288.728 596.835C290.353 597.934 291.483 597.462 293.936 597.731L294.361 598.476C293.004 599.563 291.787 598.524 289.124 599.309C288.216 600.665 288.48 602.653 288.497 604.384L287.939 604.841C286.602 603.479 287.718 600.202 286.403 599.458C285.624 599.017 282.828 599.428 281.856 598.233C282.832 597.474 284.932 597.377 286.426 597.095C287.414 595.59 287.106 593.854 287.166 591.782Z"/><path fill="#FBFAFB" d="M376.603 617.008C376.013 600.67 375.919 583.115 376.181 566.768C376.333 557.306 374.703 530.932 377.986 523.307C380.309 521.122 384.883 520.173 387.976 520.129C404.089 519.899 420.518 520.005 436.615 520.013L533.725 520.036L669.573 520.007C692.865 520 716.15 519.9 739.449 520.078C748.081 520.144 750.498 522.667 750.937 531.237C751.23 536.944 751.098 542.656 751.1 548.369L751.091 578.894C751.089 589.871 751.363 600.919 751.124 611.874C750.818 625.864 733.898 623.079 724.359 622.998C704.609 611.569 694.616 611.18 674.466 622.382C651.611 623.335 631.665 622.652 608.953 622.608L498.523 622.588L425.906 622.968C412.332 623.035 394.948 623.604 381.837 622.326C379.203 620.151 378.719 619.62 376.603 617.008Z"/><path fill="#F3F6F8" d="M390.2 560.73C402.596 559.886 421.538 560.501 434.673 560.502L523.785 560.515C574.382 560.223 624.981 560.244 675.578 560.578C695.361 560.658 717.625 559.846 737.061 560.515C737.288 563.094 737.857 565.919 736.412 568.018C696.192 568.33 655.97 568.341 615.75 568.049L389.317 568.003C389.078 565.486 388.334 562.553 390.2 560.73Z"/><path fill="#F3F6F8" d="M389.459 538.202C416.03 537.405 448.508 537.827 475.167 538.181C475.166 540.984 475.252 542.955 474.707 545.741C446.336 545.217 417.957 545.211 389.585 545.724C389.456 543.069 389.436 540.846 389.459 538.202Z"/><path fill="#4571F2" d="M718.551 537.828C721.081 538.474 725.295 543.285 727.304 545.351C729.105 543.449 733.129 538.853 735.532 538.225L735.673 538.861C732.678 541.715 730.458 544.081 727.682 547.163C724.502 544.117 721.353 541.233 718.551 537.828Z"/><path fill="#FBFAFB" d="M344.483 235.505C349.703 234.914 359.183 235.19 364.815 235.19L401.516 235.202L524.848 235.268L694.168 235.3L748.425 235.127C758.251 235.087 768.058 234.872 777.881 235.165C786.617 235.427 790.565 238.599 796.091 244.8C808.173 249.262 816.354 264.079 818.075 276.291C819.484 283.076 821.526 292.409 821.501 299.303C822.682 311.768 820.685 319.634 820.51 331.025C842.067 331.076 864.397 331.392 885.893 331.104C885.895 337.571 885.934 344.038 886.009 350.504C879.474 350.052 872.995 350.443 866.438 350.518L839.679 350.621C836.231 350.65 827.094 351.265 824.482 350.432C823.796 352.68 823.703 357.314 823.562 359.836C817.654 360.492 803.978 360.039 797.647 359.975C797.719 356.646 797.645 353.38 797.585 350.052C793.614 350.054 789.423 349.985 785.471 350.105C785.515 345.108 785.335 335.594 785.808 330.945L797.981 330.974L798.058 284.887L348.535 284.647L348.502 544.169L348.508 618.659C348.513 624.957 349.027 646.695 348.247 651.937L348.067 651.885C347.139 650.869 347.304 648.919 347.164 647.244C346.356 637.342 347.216 618.17 347.246 607.553L347.128 532.015L347.113 284.835L228.145 284.808C227.385 310.089 228.496 335.605 228.34 360.661L228.515 588.968L227.598 588.381C226.924 580.767 227.37 566.305 227.389 558.35L227.443 501.845C215.015 501.334 201.279 502.495 188.591 501.781L188.682 500.7C200.566 500.142 215.389 500.529 227.497 500.545C227.381 477.351 227.404 454.157 227.567 430.963C220.341 430.721 195 430.364 188.679 431.317L189.083 430.08C193.305 429.145 223.196 429.292 227.483 430.108L227.45 360.31L220.827 360.39C219.385 359.471 215.24 359.729 213.546 360.261C211.258 360.459 192.315 360.342 190.078 360.149L191.248 359.773L189.918 359.133C201.964 358.792 215.303 359.152 227.502 359.101C227.642 331.697 226.621 300.467 227.554 273.385C227.38 262.746 226.599 249.83 234.482 241.389C236.042 239.719 240.281 236.639 242.54 236.368C253.565 235.049 266.556 235.461 277.685 235.463L344.483 235.505Z"/><path fill="#39383D" d="M344.483 235.505C349.703 234.914 359.183 235.19 364.815 235.19L401.516 235.202L524.848 235.268L694.168 235.3L748.425 235.127C758.251 235.087 768.058 234.872 777.881 235.165C786.617 235.427 790.565 238.599 796.091 244.8C808.173 249.262 816.354 264.079 818.075 276.291C819.484 283.076 821.526 292.409 821.501 299.303C822.682 311.768 820.685 319.634 820.51 331.025C842.067 331.076 864.397 331.392 885.893 331.104C885.895 337.571 885.934 344.038 886.009 350.504C879.474 350.052 872.995 350.443 866.438 350.518L839.679 350.621C836.231 350.65 827.094 351.265 824.482 350.432C823.796 352.68 823.703 357.314 823.562 359.836C817.654 360.492 803.978 360.039 797.647 359.975C797.719 356.646 797.645 353.38 797.585 350.052C793.614 350.054 789.423 349.985 785.471 350.105C785.515 345.108 785.335 335.594 785.808 330.945L797.981 330.974L798.058 284.887L348.535 284.647L348.502 544.169L348.508 618.659C348.513 624.957 349.027 646.695 348.247 651.937L348.067 651.885C347.139 650.869 347.304 648.919 347.164 647.244C346.356 637.342 347.216 618.17 347.246 607.553L347.128 532.015L347.113 284.835L228.145 284.808C227.385 310.089 228.496 335.605 228.34 360.661L228.515 588.968L227.598 588.381C226.924 580.767 227.37 566.305 227.389 558.35L227.443 501.845C215.015 501.334 201.279 502.495 188.591 501.781L188.682 500.7C200.566 500.142 215.389 500.529 227.497 500.545C227.381 477.351 227.404 454.157 227.567 430.963C220.341 430.721 195 430.364 188.679 431.317L189.083 430.08C193.305 429.145 223.196 429.292 227.483 430.108L227.45 360.31L220.827 360.39C219.385 359.471 215.24 359.729 213.546 360.261C211.258 360.459 192.315 360.342 190.078 360.149L191.248 359.773L189.918 359.133C201.964 358.792 215.303 359.152 227.502 359.101C227.642 331.697 226.621 300.467 227.554 273.385C227.898 275.286 228.095 281.292 228.247 283.61C292.958 282.947 358.905 283.574 423.704 283.576L798.032 283.579C798.125 271.878 800.384 251.886 792.813 242.403C790.582 239.608 784.093 236.408 780.542 236.223C768.983 235.617 757.205 235.849 745.592 235.858L679.061 235.865L456.166 235.866L384.614 235.886C372.522 235.887 356.149 236.355 344.483 235.505Z"/><defs><linearGradient id="gradient_0" gradientUnits="userSpaceOnUse" x1="794.10211" y1="290.31549" x2="818.73944" y2="286.6539"><stop offset="0" stop-color="#5972E2"/><stop offset="1" stop-color="#BCC8F7"/></linearGradient></defs><path fill="url(#gradient_0)" d="M796.091 244.8C808.173 249.262 816.354 264.079 818.075 276.291C819.484 283.076 821.526 292.409 821.501 299.303C822.682 311.768 820.685 319.634 820.51 331.025L798.978 331.064L799.286 281.604C799.318 270.369 800.263 254.91 796.091 244.8Z"/><path fill="#AFBEF8" d="M818.075 276.291C819.484 283.076 821.526 292.409 821.501 299.303C818.905 296.83 817.246 280.36 818.075 276.291Z"/><path fill="#8699F0" d="M797.585 350.052C801.476 349.97 822.544 349.201 824.482 350.432C823.796 352.68 823.703 357.314 823.562 359.836C817.654 360.492 803.978 360.039 797.647 359.975C797.719 356.646 797.645 353.38 797.585 350.052Z"/><path fill="#F3F6F8" d="M786.75 332.069L852.594 332.068C863.259 332.097 874.592 332.443 885.142 332.257C885.129 337.804 885.183 343.504 885.097 349.037C879.125 349.753 873.305 349.401 867.32 349.477C840.519 349.819 813.568 348.57 786.783 349.088C786.341 346.031 786.483 335.165 786.75 332.069Z"/><path fill="#5F5E63" d="M786.783 349.088C786.341 346.031 786.483 335.165 786.75 332.069C787.095 335.897 787.211 345.29 786.783 349.088Z"/><path fill="#58413E" d="M326.967 249.626C341.518 249.015 358.679 249.533 373.48 249.539L461.186 249.542L562.75 249.702C582.341 249.697 602.031 249.613 621.624 249.749C624.058 250.02 629.597 249.958 631.713 251.119C640.168 255.764 635.681 264.629 628.335 267.216C610.923 268.522 584.547 267.512 566.316 267.505L445.273 267.485L368.538 267.484C357.647 267.504 333.111 268.257 323.379 266.366C316.708 259.639 317.679 252.739 326.967 249.626Z"/><path fill="#FBFAFB" d="M324.9 251.103C333.367 250.538 343.667 250.852 352.278 250.894L392.643 250.931L527.68 250.944L593.783 250.925C605.071 250.879 618.462 250.252 629.546 251.497C636.612 252.291 636.612 261.585 629.63 265.811C618.542 266.705 599.337 266.073 587.55 266.053L509.885 266.053L388.56 266.116C368.897 266.123 349.245 266.273 329.574 266.121C324.622 266.082 319.426 263.73 320.135 257.813C320.519 254.608 322.452 252.965 324.9 251.103Z"/><path fill="#294EF2" d="M256.815 249.645C264.25 249.317 293.084 248.736 298.374 250.8C300.086 251.457 301.458 252.781 302.174 254.469C304.769 260.529 300.885 265.344 295.334 267.467C286.039 267.877 276.776 268.208 267.439 267.73C262.517 267.477 252.478 267.599 250.288 261.741C247.992 255.601 251.369 252.08 256.815 249.645Z"/><path fill="#39383D" d="M728.382 250.708C732.787 250.64 737.963 250.376 741.538 253.456C744.679 256.162 745.117 260.628 741.872 263.514C738.347 266.651 735.575 266.495 731.156 266.471C726.186 266.591 721.27 266.978 717.109 263.661C713.902 261.104 713.142 256.939 716.318 253.933C719.97 250.475 723.684 250.831 728.382 250.708Z"/><path fill="#FBFAFB" d="M720.298 252.115C724.866 251.958 739.595 250.21 742.107 255.333C744.376 259.96 742.218 262.933 737.894 265.092C735.284 265.541 732.905 265.45 730.235 265.543C724.45 265.744 713.777 265.435 715.966 256.701C716.575 254.275 718.185 253.258 720.298 252.115Z"/><path fill="#39383D" d="M759.314 251.156C764.647 250.795 774.959 250.216 779.481 252.349C786.126 255.483 784.219 263.258 777.672 265.859C772.608 266.789 758.302 268.019 755.182 262.561C752.251 257.437 754.861 253.992 759.314 251.156Z"/><path fill="#FBFAFB" d="M759.743 252.071C762.429 251.972 765.156 251.963 767.84 251.857C773.557 251.63 784.421 252.015 782.017 260.695C781.371 263.031 779.59 263.934 777.564 264.925C771.686 265.367 752.815 267.889 755.157 257.612C755.736 255.074 757.609 253.375 759.743 252.071Z"/><path fill="#39383D" d="M683.729 251.184C687.734 251.075 698.181 250.27 701.156 252.1C709.846 257.445 705.265 263.874 697.838 266.413C693.436 266.485 682.721 266.832 679.464 264.67C673.039 260.407 676.238 252.284 683.729 251.184Z"/><path fill="#FBFAFB" d="M684.623 252.172C690.574 251.775 703.483 250.441 705.069 258.375C705.89 262.481 700.244 264.771 697.06 265.201C691.763 265.345 684.06 266.166 679.453 263.444C675.92 261.356 676.463 257.082 678.941 254.377C680.826 252.32 681.94 252.432 684.623 252.172Z"/><path fill="#090A0F" d="M674.466 622.382C694.616 611.18 704.609 611.569 724.359 622.998L725.933 624.646C734.009 633.322 736.439 637.706 735.982 650.084L735.894 652.186C741.49 651.958 753.405 651.231 758.673 652.033C760.204 652.911 761.399 652.525 763.157 652.911C768.813 653.176 774.707 653.029 780.386 652.979L773.233 659.696C769.577 664.228 767.966 666.881 766.542 672.818C751.55 675.52 736.693 677.476 721.407 680.311C732.924 685.195 744.382 693.58 744.089 707.636C744.115 708.859 744.227 711.109 744.099 712.226C743.586 730.226 728.354 751.143 709.97 753.874C708.432 754.103 704.883 754.551 703.584 754.98L702.409 754.817C674.757 756.422 646.461 728.201 655.347 700.128C658.093 691.455 668.379 685.029 676.076 681.355C677.653 680.83 678.216 680.795 679.287 679.514C668.812 670.856 666.105 667.485 662.323 653.97L661.915 651.945L661.894 651.248C661.56 638.556 663.539 633.396 672.359 624.136L674.466 622.382Z"/><path fill="#294EF2" d="M658.054 696.948C683.328 707.287 682.972 692.402 704.751 691.611C717.998 691.129 723.037 703.909 741.551 698.26C742.342 701.4 743.188 704.526 744.089 707.636C744.115 708.859 744.227 711.109 744.099 712.226C743.506 714.094 743.184 715.835 742.79 717.743C738.412 718.351 732.738 719.034 728.458 718.051C719.083 715.887 708.152 708.549 698.011 711.533C679.22 717.061 675.202 724.36 655.339 714.679C653.681 707.5 654.967 703.377 658.054 696.948Z"/><defs><linearGradient id="gradient_1" gradientUnits="userSpaceOnUse" x1="747.53967" y1="656.896" x2="751.25958" y2="674.64606"><stop offset="0" stop-color="#7087EA"/><stop offset="1" stop-color="#BEC7FD"/></linearGradient></defs><path fill="url(#gradient_1)" d="M734.927 656.245C735.105 655.477 735.495 653.543 735.992 653.404C739.769 652.346 753.975 652.768 757.206 652.955L763.157 652.911C768.813 653.176 774.707 653.029 780.386 652.979L773.233 659.696C769.577 664.228 767.966 666.881 766.542 672.818C751.55 675.52 736.693 677.476 721.407 680.311C720.387 679.929 720.743 680.11 719.905 679.372C720.383 677.975 725.412 674.551 727.631 671.27C731.467 665.598 732.784 662.748 734.927 656.245Z"/><path fill="#4571F2" d="M734.927 656.245C735.105 655.477 735.495 653.543 735.992 653.404C739.769 652.346 753.975 652.768 757.206 652.955C758.741 653.272 760.061 653.442 761.467 654.135C755.624 656.204 742.732 657.627 735.36 659.702C735.186 658.498 735.042 657.461 734.927 656.245Z"/><path fill="#FBFAFB" d="M694.454 615.663C726.515 613.112 747.497 643.182 726.981 670.423C721.18 678.124 713.676 682.365 704.083 683.647C695.274 684.668 686.689 683.022 679.24 678.057C671.098 672.559 665.505 664.02 663.717 654.359C659.617 632.876 674.466 618.735 694.454 615.663Z"/><path fill="#212223" d="M716.569 638.446L716.955 638.848C716.108 640.944 697.06 659.563 694.042 662.373L683.342 651.768C683.152 651.271 683.168 651.544 683.42 650.951C686.082 652.094 691.801 658.596 694.084 661.073C701.71 653.671 708.747 645.56 716.569 638.446Z"/><path fill="#294EF2" d="M699.233 712.578C712.905 711.507 715.457 716.138 727.945 719.212C732.325 720.29 737.773 719.746 742.31 719.409C729.833 757.6 723.053 726.388 694.858 733.442C682.751 737.515 668.111 746.823 660.317 730.515C657.804 725.256 656.751 721.358 655.5 715.638C675.401 726.835 680.827 716.95 699.233 712.578Z"/><path fill="#294EF2" d="M718.046 680.127C723.627 681.848 739.659 690.879 739.584 697.209C731.936 703.685 711.202 688.315 701.384 690.155C693.714 691.593 689.751 693.755 682.727 697.077C672.733 700.789 668.203 699.942 658.693 695.805C663.779 688.785 673.254 683.669 681.159 680.624C682.681 681.264 684.215 681.872 685.762 682.447C697.93 686.861 706.618 685.548 718.046 680.127Z"/><path fill="#294EF2" d="M698.712 733.573C703.04 733.455 706.732 733.28 710.954 734.493C719.029 736.813 722.721 739.707 731.331 740.184C722.929 749.331 716.394 752.674 704.125 754.025C689.68 754.293 680.374 751.072 669.719 741.066C684.062 741.033 686.229 736.538 698.712 733.573Z"/><defs><linearGradient id="gradient_2" gradientUnits="userSpaceOnUse" x1="553.77124" y1="653.33118" x2="553.72937" y2="679.80658"><stop offset="0" stop-color="#4F6FEA"/><stop offset="1" stop-color="#C2C8FB"/></linearGradient></defs><path fill="url(#gradient_2)" d="M661.915 651.945L662.323 653.97C666.105 667.485 668.812 670.856 679.287 679.514C678.216 680.795 677.653 680.83 676.076 681.355C671.034 680.694 666.88 677.886 662.477 677.661C644.515 676.744 627.43 676.866 609.482 677.836C598.996 678.402 587.74 677.85 577.169 678.068C572.168 677.817 566.394 678.918 561.475 678.608C541.197 677.33 520.96 678.487 500.739 678.256C476.808 677.984 452.558 675.359 428.672 674.566C429.25 670.065 428.964 658.152 429.049 652.961C455.007 653.574 480.515 653.031 506.453 652.955C511.51 651.675 515.587 653.797 520.825 652.074C523.605 651.753 531.864 651.935 535.053 651.942L563.303 651.995L661.915 651.945Z"/><path fill="#2E45A7" d="M661.915 651.945L662.323 653.97L661.854 654.129C659.602 652.824 651.435 653.828 648.256 653.91C625.158 654.511 601.673 653.187 578.69 653.469C561.563 653.678 544.682 654.513 527.58 653.96C520.494 653.731 513.51 653.188 506.453 652.955C511.51 651.675 515.587 653.797 520.825 652.074C523.605 651.753 531.864 651.935 535.053 651.942L563.303 651.995L661.915 651.945Z"/><path fill="#FBFAFB" d="M802.726 645.777C801.574 644.113 798.32 639.258 796.956 638.086C791.185 633.218 783.985 631.938 778.875 625.947C768.6 613.903 767.303 596.713 780.217 585.714C804.305 565.197 859.168 572.32 855.394 612.135C848.94 631.53 834.642 631.161 824.898 642.668L823.107 644.784C819.114 648.85 815.834 653.35 812.477 657.943C809.203 653.544 805.854 649.901 802.726 645.777Z"/><path fill="#78251F" d="M788.686 599.759C794.804 599.599 837.857 597.972 839.322 601.497L838.85 602.408C831.827 602.268 790.713 603.352 787.918 601.536L787.779 600.532L788.686 599.759Z"/><path fill="#78251F" d="M787.867 614.57C792.61 614.485 836.084 614.212 837.558 614.964L838.117 616.772C831.233 618.454 799.389 617.19 790.551 617.323C789.353 617.341 788.6 615.674 787.867 614.57Z"/><path fill="#78251F" d="M796.998 607.25C802.514 607.067 837.709 606.237 839.952 608.526L839.184 609.392C836.801 609.928 833.753 609.768 831.25 609.764C824.15 609.754 790.827 610.6 787.367 608.751C789.585 606.825 794.079 607.215 796.998 607.25Z"/><path fill="#39383D" d="M791.96 592.139L820.105 592.024C823.017 592.019 834.073 591.255 835.431 593.532L834.883 594.482C830.305 594.537 792.996 595.609 791.501 593.763L791.96 592.139Z"/><path fill="#78251F" d="M793.095 622.201C797.824 622.261 830.764 621.92 832.713 623.107L832.878 624.744C824.532 625.058 802.763 625.547 793.839 624.017C793.313 623.927 793.271 622.942 793.095 622.201Z"/><defs><linearGradient id="gradient_3" gradientUnits="userSpaceOnUse" x1="795.73975" y1="490.27875" x2="815.68494" y2="491.32419"><stop offset="0" stop-color="#526BE4"/><stop offset="1" stop-color="#A9B8F5"/></linearGradient></defs><path fill="url(#gradient_3)" d="M822.689 408.19L823.466 407.586C823.541 416.78 822.44 426.411 822.647 435.378C823.653 478.938 816.392 521.853 817.545 565.427C817.616 568.048 817.516 570.753 817.697 573.362L814.034 573.26C807.84 573.352 805.455 573.86 799.338 575.169L798.963 472.422L799.121 436.951C799.223 427.207 799.573 417.778 798.929 408.048C806.7 408.021 814.968 407.859 822.689 408.19Z"/><path fill="#AFBEF8" d="M822.689 408.19L823.466 407.586C823.541 416.78 822.44 426.411 822.647 435.378C823.653 478.938 816.392 521.853 817.545 565.427C817.616 568.048 817.516 570.753 817.697 573.362L814.034 573.26C812.838 572.541 812.487 572.517 811.17 572.079C810.837 571.239 812.507 545.873 812.649 543.264L817.468 451.7L818.905 425.518C819.112 421.217 819.154 416.249 819.73 411.995C820.039 409.715 821.151 409.212 822.689 408.19Z"/><path fill="#39383D" d="M823.562 359.836C840.531 359.774 857.5 359.839 874.468 360.033C874.507 364.436 875.115 376.486 873.545 380.049C870.229 381.881 836.391 381.666 831.884 380.922L830.841 381.488C830.514 384.225 830.986 385.236 831.082 387.829C829.009 389.031 818.289 388.433 815.077 388.337C809.467 388.554 803.006 388.657 797.431 388.346L797.552 380.536C789.731 380.417 781.909 380.353 774.087 380.345L774.086 360.029L797.647 359.975C803.978 360.039 817.654 360.492 823.562 359.836Z"/><path fill="#8699F0" d="M819.558 380.601C821.82 380.555 830.479 380.135 831.884 380.922L830.841 381.488C830.514 384.225 830.986 385.236 831.082 387.829C829.009 389.031 818.289 388.433 815.077 388.337C812.67 388.178 810.827 388.07 809.424 385.897C809.6 381.614 816.404 380.844 819.558 380.601Z"/><path fill="#294EF2" d="M797.552 380.536C804.888 380.491 812.223 380.513 819.558 380.601C816.404 380.844 809.6 381.614 809.424 385.897C810.827 388.07 812.67 388.178 815.077 388.337C809.467 388.554 803.006 388.657 797.431 388.346L797.552 380.536Z"/><path fill="#F3F6F8" d="M775.445 361.06C808.106 360.767 840.769 360.766 873.429 361.058C873.469 367.199 873.343 373.339 873.05 379.473L808.805 379.425C797.936 379.375 786.277 378.807 775.538 379.421C775.321 373.625 775.459 366.921 775.445 361.06Z"/><path fill="#F3F6F8" d="M831.082 387.829C836.339 387.427 870.981 387.166 874.029 388.411C872.584 388.591 871.26 388.774 869.799 388.839L872.502 389.331C872.778 395.207 872.591 401.18 872.497 407.068L789.713 407.017L794.023 407.982L762.958 408.003L762.979 388.188C774.427 388.598 785.947 388.141 797.431 388.346C803.006 388.657 809.467 388.554 815.077 388.337C818.289 388.433 829.009 389.031 831.082 387.829Z"/><path fill="#5F5E63" d="M831.082 387.829C836.339 387.427 870.981 387.166 874.029 388.411C872.584 388.591 871.26 388.774 869.799 388.839L872.502 389.331C863.178 390.487 843.809 389.573 833.717 389.509L764.001 389.53C764.187 395.274 764.222 401.021 764.106 406.767C769.206 406.63 784.642 406.501 789.713 407.017L794.023 407.982L762.958 408.003L762.979 388.188C774.427 388.598 785.947 388.141 797.431 388.346C803.006 388.657 809.467 388.554 815.077 388.337C818.289 388.433 829.009 389.031 831.082 387.829Z"/><path fill="#294EF2" d="M672.359 624.136C663.93 623.686 653.655 623.935 645.121 623.938L597.532 623.972L456.224 623.998L410.789 624.103C402.656 624.125 394.501 624.218 386.436 623.95C380.172 623.743 375.418 620.075 375.257 613.559C374.585 586.398 374.702 559.001 375.008 531.837C375.101 523.588 378.022 518.692 386.542 519.025C413.343 518.856 440.147 518.961 466.95 518.963L624.979 518.975L707.393 519.024L731.368 519.04C734.066 519.043 737.797 519.247 740.259 519.076C747.653 518.562 752.185 523.097 752.465 530.534C752.849 540.759 752.501 551.745 752.496 562.016L752.511 596.311C752.516 602.205 752.916 610.083 751.925 615.695C749.961 626.809 733.837 623.004 725.933 624.646L724.359 622.998C733.898 623.079 750.818 625.864 751.124 611.874C751.363 600.919 751.089 589.871 751.091 578.894L751.1 548.369C751.098 542.656 751.23 536.944 750.937 531.237C750.498 522.667 748.081 520.144 739.449 520.078C716.15 519.9 692.865 520 669.573 520.007L533.725 520.036L436.615 520.013C420.518 520.005 404.089 519.899 387.976 520.129C384.883 520.173 380.309 521.122 377.986 523.307C374.703 530.932 376.333 557.306 376.181 566.768C375.919 583.115 376.013 600.67 376.603 617.008C378.719 619.62 379.203 620.151 381.837 622.326C394.948 623.604 412.332 623.035 425.906 622.968L498.523 622.588L608.953 622.608C631.665 622.652 651.611 623.335 674.466 622.382L672.359 624.136Z"/><path fill="#39383D" d="M874.029 388.411C873.924 394.926 873.885 401.442 873.912 407.958C863.048 407.793 852.181 407.729 841.315 407.769C836.428 407.77 827.912 408.055 823.466 407.586L822.689 408.19C814.968 407.859 806.7 408.021 798.929 408.048C799.573 417.778 799.223 427.207 799.121 436.951L798.963 472.422L799.338 575.169C805.455 573.86 807.84 573.352 814.034 573.26L817.697 573.362C822.248 573.986 825.425 574.598 829.811 575.813C845.016 580.024 861.32 594.622 855.394 612.135C859.168 572.32 804.305 565.197 780.217 585.714C767.303 596.713 768.6 613.903 778.875 625.947C783.985 631.938 791.185 633.218 796.956 638.086C798.32 639.258 801.574 644.113 802.726 645.777L801.523 645.623C799.533 643.924 796.882 639.025 795.103 638.052C784.038 631.997 775.224 627.27 770.999 614.225C768.753 607.451 769.344 600.057 772.637 593.726C777.971 583.553 787.689 578.936 798.08 575.614L798.067 457.203L798.036 424.5C798.05 420.717 798.409 411.959 797.965 408.754C796.838 407.664 796.123 408.061 794.023 407.982L789.713 407.017L872.497 407.068C872.591 401.18 872.778 395.207 872.502 389.331L869.799 388.839C871.26 388.774 872.584 388.591 874.029 388.411Z"/><path fill="#39383D" d="M429.152 652.062L488.358 652.047C498.784 652.034 510.499 651.767 520.825 652.074C515.587 653.797 511.51 651.675 506.453 652.955C480.515 653.031 455.007 653.574 429.049 652.961L429.152 652.062Z"/><path fill="#294EF2" d="M385.827 351.633C402.175 351.009 421.244 351.566 437.825 351.578L537.882 351.593L597.48 351.488C607.997 351.472 619.098 351.18 629.532 351.93C639.254 352.629 638.466 370.026 637.335 376.768C636.467 381.939 634.653 384.238 630.424 386.941C624.76 387.249 617.533 387.083 611.75 387.09L412.804 387.01C407.665 393.435 402.234 399.622 396.53 405.552C393.767 399.831 391.321 394.103 388.798 388.275C383.81 386.481 382.54 385.943 379.002 382.016C377.848 376.617 376.882 363.427 378.925 358.145C380.399 354.333 382.334 353.188 385.827 351.633Z"/><path fill="#F3F6F8" d="M585.959 373.482C583.282 371.356 583.301 364.522 587.51 363.473L587.77 363.883L586.874 363.392L587.187 363.353L587.782 363.905C587.209 365.414 587.042 365.748 587.175 367.425L588.452 367.431C590.151 366.601 590.343 366.396 592.254 366.66C594.876 368.527 594.451 370.559 593.752 373.413C590.615 373.734 589.095 373.639 585.959 373.482Z"/><path fill="#FBFAFB" d="M585.959 373.482C583.282 371.356 583.301 364.522 587.51 363.473L587.77 363.883L586.874 363.392L587.187 363.353L587.782 363.905C587.209 365.414 587.042 365.748 587.175 367.425C586.373 369.712 586.646 371.569 585.959 373.482Z"/><path fill="#2E45A7" d="M587.175 367.425L588.452 367.431L590.797 368.151C590.346 370.9 587.597 370.553 588.262 372.519C590.483 373.484 591.254 373.338 593.752 373.413C590.615 373.734 589.095 373.639 585.959 373.482C586.646 371.569 586.373 369.712 587.175 367.425Z"/><path fill="#2E45A7" d="M499.17 364.008C501.931 363.162 502.213 363.339 504.678 364.776C505.282 367.63 505.579 368.643 505.418 371.64C504.798 371.746 505.166 371.659 504.248 372.026L503.453 372.349C501.726 371.924 502.317 372.151 500.98 370.427L501.175 369.705L500.284 371.796L500.347 372.366L499.814 372.83L498.82 372.391C496.968 368.687 496.487 367.184 499.17 364.008Z"/><path fill="#FBFAFB" d="M499.17 364.008C501.575 368.513 498.97 367.782 500.284 371.796L500.347 372.366L499.814 372.83L498.82 372.391C496.968 368.687 496.487 367.184 499.17 364.008Z"/><path fill="#2E45A7" d="M556.831 366.765C558.892 366.581 562.342 366.017 564.281 366.75C566.167 367.462 566.265 370.853 564.998 372.305C563.676 371.572 564.544 370.443 563.489 367.963L562.545 367.711L561.815 368.186C561.736 370.224 561.499 370.802 560.929 372.801C559.52 373.454 554.678 373.339 553.039 372.96C551.994 371.3 552.303 369.72 552.653 367.748C553.409 369.368 553.621 370.056 554.849 371.397L555.746 371.332C557.199 369.444 556.711 369.701 556.831 366.765Z"/><path fill="#FBFAFB" d="M427.223 367.722C436.102 363.087 435.862 372.585 431.429 375.205C429.366 375.305 429.149 375.178 427.552 373.642L426.56 372.944C426.725 372.109 426.468 368.294 426.418 367.205L427.223 367.722Z"/><path fill="#2E45A7" d="M426.418 367.205L427.223 367.722L427.319 368.319C427.907 371.839 427.956 371.477 431.082 373.197L430.788 373.527C429.695 373.497 428.639 373.516 427.552 373.642L426.56 372.944C426.725 372.109 426.468 368.294 426.418 367.205Z"/><path fill="#FBFAFB" d="M509.688 367.134C510.113 365.19 509.793 365.124 510.961 363.962C512.154 365.595 512.038 371.563 510.593 373.153L508.046 372.951C506.06 372.588 506.906 373.009 505.418 371.64C505.579 368.643 505.282 367.63 504.678 364.776C506.829 364.694 507.016 364.581 508.545 366.344L509.688 367.134Z"/><path fill="#FBFAFB" d="M509.688 367.134C510.113 365.19 509.793 365.124 510.961 363.962C512.154 365.595 512.038 371.563 510.593 373.153C509.915 371.481 509.839 368.962 509.688 367.134Z"/><path fill="#2E45A7" d="M508.545 366.344L509.688 367.134C509.839 368.962 509.915 371.481 510.593 373.153L508.046 372.951C508.519 370.261 506.319 370.55 508.545 366.344Z"/><path fill="#FBFAFB" d="M488.468 366.8C489.511 366.173 490.811 366.161 491.865 366.768C492.919 367.375 493.561 368.506 493.542 369.722C493.523 370.938 492.846 372.048 491.774 372.622C490.172 373.48 488.179 372.903 487.282 371.323C486.385 369.743 486.911 367.736 488.468 366.8Z"/><path fill="#F3F6F8" d="M529.515 366.758C530.601 366.228 531.891 366.342 532.867 367.054C533.843 367.767 534.345 368.961 534.171 370.157C533.998 371.353 533.177 372.354 532.039 372.76C530.409 373.341 528.609 372.547 527.939 370.952C527.268 369.357 527.96 367.516 529.515 366.758Z"/><path fill="#FBFAFB" d="M404.387 369.784L404.656 370.46C403.06 373.128 398.976 373.869 397.389 371.375C394.984 367.594 398.39 363.285 402.614 364.268C404.05 365.333 403.916 365.306 404.495 367.029C402.665 366.434 401.637 365.845 399.849 366.45C398.484 367.845 398.881 367.036 398.602 368.955C399.614 370.704 398.929 370.076 400.68 370.963C402.674 370.827 402.682 370.697 404.387 369.784Z"/><path fill="#FBFAFB" d="M436.787 366.401C438.561 366.225 438.464 366.218 440.197 366.636C441.579 367.97 441.226 367.204 441.571 368.857C440.719 370.211 439.957 370.273 438.416 370.818L437.834 371.019L438.551 371.384L438.122 371.129L438.44 371.081C439.545 371.95 438.923 371.601 440.79 371.551L441.251 371.705C439.961 373.259 438.733 373.284 436.898 372.873C434.26 370.591 434.84 368.662 436.787 366.401Z"/><path fill="#F3F6F8" d="M415.394 366.09C417.833 366.435 418.298 366.81 419.394 368.871C419.569 373.272 417.541 373.041 414.172 373.082C413.057 371.709 412.961 371.13 413.774 369.746C415.19 369.134 415.478 369.219 416.436 368.135L414.279 367.545L414.196 366.905L415.394 366.09Z"/><path fill="#F3F6F8" d="M545.998 366.591C549.353 366.445 552.374 367.837 550.823 372.19C550.335 373.559 548.519 373.521 547.141 373.746C545.619 372.485 544.561 372.024 545.536 370.096C547.081 369.367 547.177 369.518 548.291 368.299L546.39 367.781L545.998 366.591Z"/><path fill="#F3F6F8" d="M606.717 366.513C609.26 366.468 610.921 366.006 612.36 368.17C610.917 369.56 610.775 369.677 608.998 370.665L608.579 370.893L608.645 371.562L610.306 372.066C610.902 371.93 610.614 371.891 611.166 372.206C609.561 373.571 610.468 373.18 608.323 373.366C604.918 371.809 605.561 369.463 606.717 366.513Z"/><path fill="#FBFAFB" d="M515.334 366.318C516.503 366.404 518.92 366.877 519.289 368.093C518.82 369.544 517.649 369.907 516.079 371.022L516.528 371.425L518.986 371.189C518.191 372.502 518.577 372.04 517.203 372.906C516.175 373.017 514.833 372.95 514.125 372.179C511.233 369.029 513.334 367.819 515.334 366.318Z"/><path fill="#FBFAFB" d="M468.447 363.303C469.269 364.216 469.371 365.225 470.033 366.395C470.92 366.548 471.759 366.606 472.657 366.636C473.95 368.274 474.361 371.199 472.835 372.74C471.675 371.283 472.009 371.242 471.667 369.102L471.603 368.361L470.956 367.984L470.142 368.559C469.6 370.469 469.387 370.912 468.492 372.706L468.058 372.154C467.592 368.916 467.72 366.488 468.447 363.303Z"/><path fill="#FBFAFB" d="M574.364 363.231C576.805 365.395 574.104 364.093 576.275 366.542C577.56 366.516 577.988 366.544 579.266 366.698C580.775 368.517 580.592 371.137 579.055 372.855C578.364 371.979 578.401 369.965 578.268 368.632C577.875 367.858 578.186 368.208 577.163 367.765C575.489 368.797 575.694 370.439 574.401 373.054L574.059 372.229L574.624 372.695L574.407 373.017L573.979 371L574.908 372.002L573.992 371.26C573.899 367.972 573.994 366.471 574.364 363.231Z"/><path fill="#F3F6F8" d="M426.56 372.944C425.376 372.914 425.777 373.01 424.675 372.437C424.275 369.825 425.137 370.494 423.679 368.154L422.988 368.274C422.488 369.943 422.139 371.011 421.486 372.622L420.732 372.83C419.648 370.298 419.984 367.987 422.308 366.423C424.498 366.409 424.392 366.383 426.418 367.205C426.468 368.294 426.725 372.109 426.56 372.944Z"/><path fill="#FBFAFB" d="M405.583 367.088C405.878 365.376 405.687 364.792 406.623 363.607L406.668 363.608C406.832 363.896 408.142 366.215 408.353 366.303C411.91 367.785 413.55 367.848 411.58 372.009C409.833 370.423 409.895 368.765 408.501 367.624C406.975 368.837 408.541 372.385 406.57 372.404C405.936 370.737 405.946 370.721 405.748 368.941L405.583 367.088Z"/><path fill="#FBFAFB" d="M476.938 366.147C478.9 366.287 478.811 366.287 480.608 367.127C481.787 369.551 478.359 369.305 477.993 371.718L479.748 372.413L480.096 372.647L479.834 373.144C478.2 373.443 478.319 373.437 476.743 372.892C474.653 370.428 475.13 368.561 476.938 366.147Z"/><path fill="#FBFAFB" d="M571.418 371.352C571.916 371.796 571.613 371.479 572.165 372.432L571.608 373.134C568.896 373.63 567.176 372.771 566.443 370.083C567.225 367.268 570.356 364.793 572.426 367.732C569.886 368.017 570.402 367.572 568.845 368.996L568.557 370.263C569.562 371.457 569.656 371.522 571.418 371.352Z"/><path fill="#F3F6F8" d="M538.609 364.166C540.105 364.891 539.579 364.354 540.313 365.757C539.644 370.445 540.018 371.053 544.479 372.324C542.507 373.484 540.602 374.069 538.934 372.272C538.073 369.629 538.464 366.995 538.609 364.166Z"/><path fill="#FBFAFB" d="M446.223 364.22C451.278 367.973 445.713 366.749 449.186 373.063L447.5 373.221C445.06 371.406 445.108 366.757 446.223 364.22Z"/><path fill="#FBFAFB" d="M602.012 364.739C606.297 366.661 603.047 367.997 604.214 372.467C604.024 372.922 604.191 372.641 603.454 373.088L602.511 372.27C601.492 369.378 601.131 367.653 602.012 364.739Z"/><path fill="#FBFAFB" d="M613.126 366.477C614.281 366.474 614.954 366.558 616.106 366.692L616.401 367.297C615.211 369.191 614.992 369.714 614.796 371.942L614.708 372.625L614.092 372.953C612.386 371.28 612.773 368.582 613.126 366.477Z"/><path fill="#F3F6F8" d="M482.418 366.433C484.151 366.506 484.532 366.183 485.469 367.085C484.792 368.277 484.587 368.602 484.171 369.926L483.883 370.865L483.434 372.379L482.968 372.352C482.34 370.247 482.454 368.625 482.418 366.433Z"/><path fill="#294EF2" d="M675.969 321.186C695.787 320.251 716.326 321.477 736.221 320.916C740.493 320.795 751.571 320.761 754.984 323.182C766.66 331.464 763.261 348.812 748.109 351.084L699.317 351.435C691.455 351.497 673.608 352.955 667.39 348.65C663.849 346.168 661.515 342.31 660.961 338.021C659.504 327.48 666.399 322.321 675.969 321.186Z"/><path fill="#FBFAFB" d="M715.862 340.924C712.257 341.102 712.074 340.808 710.432 343.803L709.919 343.558C709.204 341.01 709.225 337.435 709.701 334.835C711.233 334.176 713.834 334.622 715.608 334.764L717.07 334.994C717.084 336.757 717.178 338.932 716.933 340.643L715.862 340.924Z"/><path fill="#294EF2" d="M715.608 334.764L717.07 334.994C717.084 336.757 717.178 338.932 716.933 340.643L715.862 340.924C715.97 338.49 715.832 337.171 715.608 334.764Z"/><path fill="#FBFAFB" d="M717.07 334.994C719.491 334.533 719.773 334.377 722.124 334.824C723.696 336.035 723.238 335.282 723.716 337.05C722.987 340.674 721.201 341.981 717.786 342.912C717.052 341.881 717.132 341.913 716.933 340.643C717.178 338.932 717.084 336.757 717.07 334.994Z"/><path fill="#FBFAFB" d="M731.406 334.714C732.574 334.252 733.9 334.466 734.863 335.272C735.826 336.078 736.271 337.346 736.023 338.577C735.775 339.808 734.873 340.804 733.673 341.173C731.914 341.715 730.042 340.77 729.433 339.034C728.824 337.297 729.695 335.39 731.406 334.714Z"/><path fill="#FBFAFB" d="M744.891 335.035C745.965 334.482 747.253 334.551 748.262 335.215C749.271 335.879 749.843 337.035 749.76 338.24C749.677 339.445 748.951 340.511 747.861 341.031C746.211 341.816 744.235 341.133 743.424 339.495C742.613 337.857 743.266 335.871 744.891 335.035Z"/><path fill="#FBFAFB" d="M702.612 334.687C703.846 334.445 704.839 334.492 706.086 334.484C708.704 336.021 709.345 337.78 707.667 340.53C706.849 341.868 705.117 341.576 703.673 341.671C702.575 340.461 702.334 340.412 702.028 338.796C702.807 337.522 703.364 337.682 705.117 336.987L705.383 336.283C704.349 336.139 703.893 336.033 702.882 335.763L702.612 334.687Z"/><path fill="#F3F6F8" d="M690.15 329.871L690.666 330.51C688.778 333.386 681.811 339.513 678.986 342.051L674.283 337.902L673.438 336.59L673.899 336.28C675.916 337.304 677.448 338.725 679.203 340.164L690.15 329.871Z"/><path fill="#F3F6F8" d="M736.344 334.308C737.683 335.021 737.972 335.851 738.771 337.179L739.102 337.738C740.711 337.698 740.267 336.102 742.548 334.563L742.888 335.229L742.553 334.674C742.998 336.109 743.05 335.405 742.632 336.817L739.389 341.974C737.432 339.042 736.949 337.765 736.344 334.308Z"/><path fill="#FBFAFB" d="M724.922 334.437C726.162 334.494 726.901 334.601 728.133 334.788L728.495 335.367C727.623 336.992 727.419 337.574 726.82 339.336C726.733 340.616 726.958 340.075 726.244 340.995L725.615 340.718C724.755 338.256 724.922 337.025 724.922 334.437Z"/><path fill="#4571F2" d="M390.611 431.207C400.446 430.317 414.173 430.584 424.251 430.856C439.062 431.255 457.58 426.624 457.964 446.552L665.761 446.521L710.004 446.483C721.032 446.392 737.485 445.007 747.938 447.36C749.73 447.763 750.568 449.22 751.458 450.719C753.517 454.19 752.764 496.793 752.336 503.454C752.198 505.594 751.834 507.615 751.269 509.684C750.508 493.705 751.304 477.393 751.031 461.38C750.959 457.184 751.394 452.724 748.706 449.208C744.344 446.983 724.547 447.756 718.375 447.755C700.201 448.053 681.356 447.808 663.137 447.813L549.524 447.718L490.014 447.829C480.359 447.857 465.959 448.282 456.604 447.563C456.447 444.133 456.468 440.395 454.836 437.282C453.936 435.565 452.527 434.103 450.639 433.543C443.63 431.462 396.267 431.803 387.555 432.744C384.89 433.032 382.314 433.608 379.944 434.896C372.65 444.673 379.192 494.405 376.266 509.285C374.264 507.466 375.524 484.637 375.493 480.614C375.567 468.29 374.293 455.743 375.561 443.461C376.619 433.218 381.896 431.78 390.611 431.207Z"/><path fill="#F3F6F8" d="M492.842 487.25L537.288 487.305C544.501 487.306 556.438 487.021 563.253 487.982C563.684 494.85 562.26 495.603 555.255 495.194C552.762 495.048 549.785 495.06 547.25 495.05C524.746 495.037 502.15 495.035 479.642 495.124C478.835 495.127 476.728 495.08 476.32 494.436C475.263 492.763 475.458 490.571 475.72 488.733C477.848 486.656 489.204 487.248 492.842 487.25Z"/><path fill="#F3F6F8" d="M590.899 487.715C596.861 486.978 613.894 487.384 620.76 487.462C636.6 487.641 654.148 487.034 669.827 487.749L669.909 494.998L662.516 495.042C642.441 495.051 605.186 495.218 583.596 494.976C583.338 494.779 583.079 494.582 582.821 494.385C582.179 492.351 582.094 490.132 583.508 488.493C585.569 487.607 588.55 487.775 590.899 487.715Z"/><path fill="#F3F6F8" d="M475.978 464.988C483.957 465.373 493.517 465.004 501.642 465.073C522.363 465.25 543.329 464.69 564.032 465.229C564.002 467.821 563.848 469.494 563.571 472.041C535.104 472.741 504.632 472.16 476.061 471.982C475.978 469.727 476.003 467.263 475.978 464.988Z"/><path fill="#F3F6F8" d="M582.613 465.265C592.027 464.828 667.116 464.101 669.746 465.994C670.34 468.254 669.981 469.717 669.709 472.038C641.665 472.982 611.201 471.608 582.571 472.292C582.41 469.705 582.152 467.828 582.613 465.265Z"/><path fill="#F3F6F8" d="M416.628 487.759C423.602 487.26 450.881 487.195 457.076 488.004C457.258 490.59 457.135 492.445 457.013 495.013C448.449 494.915 438.972 495.317 430.375 495.589C417.625 495.814 404.304 495.569 391.513 495.486L391.336 488.031C399.535 487.774 408.368 487.854 416.628 487.759Z"/><path fill="#F3F6F8" d="M407.744 465.25L439.466 465.115C443.353 465.112 453.392 464.886 456.743 465.609C457.409 467.481 457.094 469.882 457.003 471.93L440.75 472.01L391.553 472.264C391.378 470.123 391.174 467.985 390.94 465.85C395.925 465.333 402.621 465.367 407.744 465.25Z"/><path fill="#294EF2" d="M491.85 310.227C507.284 308.857 529.619 310.372 545.683 309.932C551.708 309.767 580.434 309.715 584.151 310.436C580.184 311.543 495.989 311.303 491.85 310.227Z"/><path fill="#294EF2" d="M402.513 310.272C403.859 310.051 409.606 309.649 410.752 309.806C419.485 310.997 472.191 308.269 476.834 310.725C469.746 311.391 405.7 311.748 402.513 310.272Z"/><path fill="#4571F2" d="M392.695 449.244C397.879 448.739 434.593 448.29 436.736 450.448C422.726 450.724 408.255 450.628 394.244 450.216C393.111 450.183 393.312 450.096 392.695 449.244Z"/><path fill="#4571F2" d="M379.303 303.876L379.811 304.704C379.025 306.653 377.545 307.841 376.034 309.364C379.683 309.306 382.237 309.249 385.849 309.624L386.303 310.391L386.338 309.707L387.17 309.939L387.014 310.31L386.825 309.887L386.124 310.509L386.011 309.753L385.62 310.583C382.886 310.953 379.461 310.837 376.651 310.841C376.719 312.271 378.7 314.021 379.85 315.352L379.751 315.977C377.453 315.066 375.075 311.716 373.459 309.676L379.303 303.876Z"/><path fill="#131444" d="M902.492 512.345C903.697 508.06 904.417 505.408 906.62 501.545L907.46 502.421C905.557 505.985 905.118 508.168 904.405 512.154C907.286 521.019 910.538 522.53 919.571 521.834L916.093 531.176C920.56 527.798 925.081 524.154 930.496 522.679C931.217 522.482 932.841 521.881 933.535 521.554L934.258 522.294L931.605 524.193C936.761 530.29 939.051 536.024 938.373 544.156C937.392 555.912 930.112 569.006 921.17 576.528C914.597 581.977 906.492 585.247 897.977 585.883C898.125 608.173 900.789 634.84 883.816 651.892C875.712 660.034 865.885 664.692 854.746 666.879C855.845 670.028 856.237 671.058 856.503 674.507L856.669 676.009C858.867 692.11 843.179 716.39 827.366 720.611C824.234 721.644 820.637 722.595 817.323 722.447C816.564 722.041 816.806 722.235 815.662 722.344C798.402 723.243 775.298 709.218 769.668 692.654C766.412 686.951 765.337 679.246 766.542 672.818C767.966 666.881 769.577 664.228 773.233 659.696L780.386 652.979C774.707 653.029 768.813 653.176 763.157 652.911C761.399 652.525 760.204 652.911 758.673 652.033C760.186 651.91 769.321 651.932 771.079 652.037C782.706 652.727 790.639 649.894 801.523 645.623L802.726 645.777C805.854 649.901 809.203 653.544 812.477 657.943C815.834 653.35 819.114 648.85 823.107 644.784C824.839 645.856 829.793 647.574 831.867 648.384C842.369 652.489 848.561 656.404 854.374 666.088C899.394 653.337 896.666 625.49 896.361 585.866C888.78 585.429 883.683 584.737 876.645 581.349C858.628 572.673 842.808 550.509 852.793 530.431C857.374 521.219 868.655 514.39 878.146 511.282C885.088 509.008 895.865 508.838 902.492 512.345Z"/><path fill="#294EF2" d="M845.606 657.616C854.596 663.789 853.023 668.31 856.503 674.507L856.669 676.009C858.867 692.11 843.179 716.39 827.366 720.611C824.234 721.644 820.637 722.595 817.323 722.447C816.564 722.041 816.806 722.235 815.662 722.344C798.402 723.243 775.298 709.218 769.668 692.654C766.412 686.951 765.337 679.246 766.542 672.818C767.966 666.881 769.577 664.228 773.233 659.696L774.043 660.186C795.765 668.95 824.964 669.512 845.606 657.616Z"/><path fill="#131444" d="M856.669 676.009C858.867 692.11 843.179 716.39 827.366 720.611C833.498 715.965 834.111 717.644 841.291 710.365C836.369 708.094 809.594 697.786 813.79 690.041C820.393 677.852 843.876 680.517 855.671 677.989C856.245 677.866 856.477 676.564 856.669 676.009Z"/><path fill="#090A0F" d="M773.233 659.696L774.043 660.186C766.187 672.149 766.225 679.108 769.668 692.654C766.412 686.951 765.337 679.246 766.542 672.818C767.966 666.881 769.577 664.228 773.233 659.696Z"/><path fill="#294EF2" d="M902.492 512.345C903.697 508.06 904.417 505.408 906.62 501.545L907.46 502.421C905.557 505.985 905.118 508.168 904.405 512.154C907.286 521.019 910.538 522.53 919.571 521.834L916.093 531.176C920.56 527.798 925.081 524.154 930.496 522.679C931.217 522.482 932.841 521.881 933.535 521.554L934.258 522.294L931.605 524.193C930.987 529.021 940.623 532.144 935.678 549.081C913.529 555.515 906.811 532.013 887.392 529.823C874.635 528.384 860.327 540.67 851.044 548.347C851.022 539.523 851.802 531.781 858.311 524.842C866.266 516.73 877.807 510.93 889.3 510.997C893.633 511.022 898.586 512.692 902.492 512.345Z"/><path fill="#090A0F" fill-opacity="0.95686275" d="M876.741 457.202C884.842 457.197 895.726 456.803 903.467 457.634L907.124 460.205C908.552 462.836 909.746 467.589 909.781 470.634C909.935 484.093 895.482 482.485 886.742 482.558C880.463 484.092 873.147 488.563 867.877 492.216C869.948 488.991 871.635 485.717 873.431 482.341C869.408 479.679 867.379 477.703 866.686 472.764C865.505 464.361 868.286 458.42 876.741 457.202ZM875.02 481.327C874.069 483.456 873.229 485.428 872.095 487.472C882.142 484.233 881.181 480.522 893.63 481.268C903.079 481.107 909.184 479.583 908.459 468.371C907.999 461.267 904.374 458.201 897.493 458.383C889.717 458.588 881.602 458.085 873.867 458.555C865.066 463.624 864.92 476.836 875.02 481.327Z"/><path fill="#090A0F" fill-opacity="0.94901961" d="M903.675 285.679C908.937 284.956 913.788 288.638 914.505 293.901C915.223 299.164 911.535 304.011 906.272 304.723C901.016 305.434 896.178 301.753 895.461 296.498C894.745 291.243 898.421 286.401 903.675 285.679ZM906.251 303.497C910.827 302.824 914.01 298.594 913.389 294.01C912.769 289.426 908.576 286.195 903.985 286.762C900.968 287.135 898.384 289.101 897.22 291.91C896.056 294.718 896.492 297.936 898.36 300.334C900.229 302.732 903.243 303.94 906.251 303.497Z"/><path fill="#090A0F" fill-opacity="0.95294118" d="M509.24 728.25C512.138 727.619 515.165 728.367 517.436 730.274C519.707 732.182 520.967 735.034 520.846 737.997C520.676 742.188 517.798 745.781 513.745 746.862C510.388 747.757 506.809 746.764 504.394 744.267C501.978 741.769 501.105 738.16 502.111 734.835C503.117 731.509 505.845 728.989 509.24 728.25ZM513.266 745.864C517.72 744.822 520.546 740.437 519.655 735.951C518.764 731.465 514.477 728.493 509.964 729.232C506.905 729.733 504.364 731.861 503.334 734.784C502.304 737.707 502.95 740.959 505.018 743.266C507.087 745.573 510.249 746.569 513.266 745.864Z"/><path fill="#F3F6F8" d="M164.382 278.775C167.616 277.908 171.064 278.89 173.356 281.33C175.648 283.771 176.412 287.274 175.344 290.448C174.275 293.621 171.549 295.949 168.247 296.507C163.465 297.315 158.891 294.223 157.858 289.484C156.825 284.745 159.697 280.03 164.382 278.775Z"/><path fill="#090A0F" fill-opacity="0.94901961" d="M847.568 462.991C850.999 452.303 854.331 447.707 864.96 441.826C890.304 427.802 937.14 441.393 926.674 477.218C924.429 484.902 917.081 491.684 909.558 495.236C897.588 500.97 883.804 501.601 871.361 496.985C859.012 492.426 850.63 484.303 847.641 471.339L848.608 470.928C857.458 508.762 918.886 506.697 926.599 473.484C936.096 432.593 857.05 422.867 848.688 464.22L847.568 462.991Z"/><path fill="#131444" d="M170.933 429.958C172.652 425.461 176.609 419.807 182.041 422.332C187.178 424.721 186.372 426.887 189.083 430.08L188.679 431.317C187.486 432.132 185.45 436.54 182.009 438.15C176.562 440.699 172.767 434.513 170.95 430.844L170.933 429.958Z"/><path fill="#131444" d="M171.842 500.616C172.143 498.088 172.657 496.355 174.728 494.656C176.429 493.238 178.631 492.567 180.834 492.795C185.433 493.31 186.962 496.572 188.328 500.445L188.682 500.7L188.591 501.781C186.912 505.221 186.579 505.702 183.937 507.914C178.185 512.731 174.401 505.518 170.733 502.031C169.856 501.906 169.094 501.796 168.449 501.704C169.495 501.168 170.683 500.933 171.842 500.616Z"/><path fill="#131444" d="M170.658 359.492C176.283 348.487 181.962 348.512 188.681 358.741L189.918 359.133L191.248 359.773L190.078 360.149L188.77 360.435L188.439 361.06C183.224 370.687 176.058 369.627 171.091 360.469L170.658 359.492Z"/><path fill="#090A0F" fill-opacity="0.95686275" d="M96.4916 396.713C98.8969 394.253 101.189 391.839 104.191 390.126C102.349 392.644 100.304 394.464 98.0713 396.634C108.348 406.966 121.461 420.26 131.943 430.003C145.007 429.266 157.873 429.544 170.933 429.958L170.95 430.844C158.694 431.709 144.968 430.333 132.394 431.307C120.474 442.32 109.459 453.579 97.8302 464.801C100.285 467.455 102.53 469.86 105.124 472.377L104.511 473.267L96.0011 464.846C107.494 453.316 119.331 442.157 130.955 430.768C122.11 420.844 106.351 406.262 96.4916 396.713Z"/><path fill="#090A0F" fill-opacity="0.94901961" d="M117.068 484.006C120.758 487.713 130.372 497.374 134.27 500.504C146.006 500.464 160.237 500.086 171.842 500.616C170.683 500.933 169.495 501.168 168.449 501.704C166.795 501.932 159.64 501.784 157.462 501.767C149.718 501.707 141.432 502.047 133.746 501.673C124.44 509.882 110.945 525.8 101.662 532.622C105.049 527.83 128.021 505.23 132.919 501.019C128.723 496.401 121.148 489.561 116.447 485.034L117.068 484.006Z"/><path fill="#090A0F" fill-opacity="0.95686275" d="M82.6453 542.823C83.5689 545.268 79.8122 554.109 79.141 557.331C76.4826 570.095 75.9124 581.954 77.0192 594.994C78.1163 607.405 81.143 619.57 85.9899 631.048C87.3046 634.225 88.9019 637.052 90.1132 639.988L90.4789 640.891C88.6075 639.392 87.3883 637.277 86.435 635.082C73.1136 604.405 71.6842 573.935 82.6453 542.823Z"/><path fill="#090A0F" fill-opacity="0.96078432" d="M815.662 722.344C816.806 722.235 816.564 722.041 817.323 722.447C817.106 723.109 817.097 722.919 817.152 723.599C818.398 738.84 816.351 754.192 806.663 766.592C797.805 777.928 782.607 784.794 768.423 786.452L768.076 785.985C769.603 784.873 775.253 784.193 777.492 783.552C790.552 779.809 802.316 772.974 809.158 760.898C814.666 751.501 816.308 740.766 816.222 730.026C816.203 727.728 816.391 724.538 815.662 722.344Z"/><path fill="#294EF2" fill-opacity="0.92941177" d="M703.614 758.281C706.895 789.62 687.567 813.279 656.534 816.834C655.664 816.933 656.047 816.926 655.051 816.69C655.809 815.588 657.63 815.197 658.963 815.039C672.573 813.428 685.787 806.227 693.848 794.879C701.336 784.339 702.568 773.92 702.562 761.225L703.185 764.129C703.419 762.164 703.503 760.253 703.614 758.281Z"/><path fill="#090A0F" fill-opacity="0.93725491" d="M134.468 359.188C139.792 359.194 167.384 358.609 170.658 359.492L171.091 360.469C159.193 360.442 146.784 360.641 134.933 360.358L116.329 378.625C113.899 381.013 108.543 386.545 106.02 388.288C106.601 386.48 131.2 362.532 134.468 359.188Z"/><path fill="#294EF2" fill-opacity="0.96862745" d="M906.62 501.545C928.497 482.874 953.377 507.964 934.258 522.294L933.535 521.554C952.811 505.358 923.597 485.773 907.46 502.421L906.62 501.545Z"/><path fill="#212223" fill-opacity="0.83137256" d="M105.124 472.377C108.906 476.093 113.195 480.491 117.068 484.006L116.447 485.034C112.782 481.721 108.118 476.83 104.511 473.267L105.124 472.377Z"/><path fill="#898A9F" fill-opacity="0.94901961" d="M847.568 462.991L848.688 464.22C848.451 466.963 848.448 468.176 848.608 470.928L847.641 471.339C847.342 467.928 847.382 466.412 847.568 462.991Z"/><path fill="#8699F0" fill-opacity="0.94509804" d="M702.409 754.817L703.584 754.98L703.614 758.281C703.503 760.253 703.419 762.164 703.185 764.129L702.562 761.225L702.409 754.817Z"/><path fill="#212223" fill-opacity="0.71764708" d="M213.546 360.261C215.24 359.729 219.385 359.471 220.827 360.39C217.707 360.56 216.685 360.578 213.546 360.261Z"/></svg>