<svg width="80" height="80" viewBox="0 0 80 80" fill="none" xmlns="http://www.w3.org/2000/svg">
<rect x="0.5" y="0.5" width="79" height="79" rx="39.5" fill="white"/>
<rect x="0.5" y="0.5" width="79" height="79" rx="39.5" fill="url(#paint0_linear_7232_169471)"/>
<path fill-rule="evenodd" clip-rule="evenodd" d="M31.9437 18.6667H31.967H48.0337H48.0569C50.2775 18.6667 51.9744 18.6667 53.3288 18.7773C54.6937 18.8888 55.7547 19.1152 56.6926 19.5931C58.292 20.408 59.5923 21.7084 60.4072 23.3077C60.8851 24.2456 61.1115 25.3066 61.223 26.6716C61.3337 28.0259 61.3337 29.7227 61.3337 31.9431V31.9434V31.9667V48.0333V48.0566V48.0569C61.3337 50.2773 61.3337 51.9741 61.223 53.3284C61.1115 54.6934 60.8851 55.7544 60.4072 56.6923C59.5923 58.2916 58.292 59.592 56.6926 60.4069C55.7547 60.8848 54.6937 61.1112 53.3288 61.2227C51.9744 61.3333 50.2776 61.3333 48.0572 61.3333H48.057H48.0337H31.967H31.9437H31.9435C29.7231 61.3333 28.0262 61.3333 26.6719 61.2227C25.307 61.1112 24.246 60.8848 23.3081 60.4069C21.7087 59.592 20.4084 58.2916 19.5934 56.6923C19.1156 55.7544 18.8892 54.6934 18.7776 53.3284C18.667 51.9741 18.667 50.2772 18.667 48.0566V48.0333V31.9667V31.9434C18.667 29.7229 18.667 28.0259 18.7776 26.6716C18.8892 25.3066 19.1156 24.2456 19.5934 23.3077C20.4084 21.7084 21.7087 20.408 23.3081 19.5931C24.246 19.1152 25.307 18.8888 26.6719 18.7773C28.0263 18.6667 29.7232 18.6667 31.9437 18.6667ZM26.7533 19.774C25.4502 19.8805 24.5355 20.09 23.7621 20.4841C22.3508 21.2032 21.2035 22.3505 20.4844 23.7617C20.0904 24.5351 19.8808 25.4499 19.7743 26.753C19.6674 28.0619 19.667 29.7182 19.667 31.9667V48.0333C19.667 50.2818 19.6674 51.9381 19.7743 53.247C19.8808 54.5501 20.0904 55.4649 20.4844 56.2383C21.2035 57.6495 22.3508 58.7968 23.7621 59.5159C24.5355 59.91 25.4502 60.1195 26.7533 60.226C28.0623 60.3329 29.7185 60.3333 31.967 60.3333H48.0337C50.2821 60.3333 51.9384 60.3329 53.2473 60.226C54.5504 60.1195 55.4652 59.91 56.2386 59.5159C57.6498 58.7968 58.7972 57.6495 59.5162 56.2383C59.9103 55.4649 60.1199 54.5501 60.2263 53.247C60.3333 51.9381 60.3337 50.2818 60.3337 48.0333V31.9667C60.3337 29.7182 60.3333 28.0619 60.2263 26.753C60.1199 25.4499 59.9103 24.5351 59.5162 23.7617C58.7972 22.3505 57.6498 21.2032 56.2386 20.4841C55.4652 20.09 54.5504 19.8805 53.2473 19.774C51.9384 19.6671 50.2821 19.6667 48.0337 19.6667H31.967C29.7185 19.6667 28.0623 19.6671 26.7533 19.774ZM35.1476 42.7253C34.2495 42.4437 33.2857 42.4509 32.3918 42.7457C31.914 42.9033 31.4445 43.1953 30.8385 43.7103C30.228 44.2291 29.5119 44.9448 28.5292 45.9275L21.6031 52.8536C21.4078 53.0488 21.0912 53.0488 20.896 52.8536C20.7007 52.6583 20.7007 52.3417 20.896 52.1464L27.8221 45.2203L27.8381 45.2043L27.8382 45.2042L27.8383 45.2041C28.8016 44.2409 29.546 43.4964 30.191 42.9483C30.8441 42.3933 31.4275 42.0107 32.0786 41.796C33.1711 41.4357 34.3491 41.427 35.4468 41.7711C36.1009 41.9762 36.6899 42.3501 37.3512 42.8954C38.0043 43.434 38.7597 44.1674 39.7372 45.1165L39.7534 45.1322L45.1737 50.3947L45.1748 50.3936L46.0969 49.4716L46.113 49.4554C47.0899 48.4785 47.8448 47.7237 48.4983 47.1688C49.16 46.6071 49.7507 46.2209 50.4093 46.0069C51.5139 45.648 52.7039 45.648 53.8085 46.0069C54.4671 46.2209 55.0577 46.6069 55.719 47.1684C56.3723 47.723 57.1268 48.4774 58.1031 49.4538L58.1193 49.47L60.1447 51.4954C60.34 51.6907 60.34 52.0072 60.1447 52.2025C59.9495 52.3978 59.6329 52.3978 59.4376 52.2025L57.4122 50.1771C56.4163 49.1812 55.6904 48.4558 55.0719 47.9307C54.4578 47.4094 53.9825 47.1149 53.4995 46.958C52.5957 46.6643 51.6221 46.6643 50.7183 46.958C50.2353 47.1149 49.7599 47.4095 49.1455 47.9311C48.5267 48.4565 47.8004 49.1823 46.804 50.1787L45.886 51.0966L53.8947 59.1053C54.09 59.3006 54.09 59.6172 53.8947 59.8124C53.6995 60.0077 53.3829 60.0077 53.1876 59.8124L44.828 51.4528L39.0568 45.8497C38.0597 44.8816 37.3331 44.1766 36.715 43.6669C36.1014 43.161 35.6277 42.8758 35.1476 42.7253ZM44.667 31.6667C44.667 29.6416 46.3086 28 48.3337 28C50.3587 28 52.0003 29.6416 52.0003 31.6667C52.0003 33.6917 50.3587 35.3333 48.3337 35.3333C46.3086 35.3333 44.667 33.6917 44.667 31.6667ZM48.3337 27C45.7563 27 43.667 29.0893 43.667 31.6667C43.667 34.244 45.7563 36.3333 48.3337 36.3333C50.911 36.3333 53.0003 34.244 53.0003 31.6667C53.0003 29.0893 50.911 27 48.3337 27Z" fill="#E2E8F0"/>
<rect x="0.5" y="0.5" width="79" height="79" rx="39.5" stroke="#E9F0F9"/>
<defs>
<linearGradient id="paint0_linear_7232_169471" x1="40" y1="0" x2="40" y2="80" gradientUnits="userSpaceOnUse">
<stop stop-color="#F8FAFC"/>
<stop offset="1" stop-color="white"/>
</linearGradient>
</defs>
</svg>
