<svg width="80" height="80" viewBox="0 0 80 80" fill="none" xmlns="http://www.w3.org/2000/svg">
<rect x="0.5" y="0.5" width="79" height="79" rx="39.5" fill="white"/>
<rect x="0.5" y="0.5" width="79" height="79" rx="39.5" fill="url(#paint0_linear_5423_122320)"/>
<path fill-rule="evenodd" clip-rule="evenodd" d="M29.467 18.6661L29.351 18.6661C26.8555 18.666 25.4853 18.666 24.3537 19.0077C21.7891 19.7821 19.7825 21.7888 19.008 24.3534C18.6663 25.4849 18.6663 26.8551 18.6664 29.3507L18.6664 29.4667V48.8327V48.856C18.6664 50.9365 18.6664 52.5285 18.7703 53.7994C18.875 55.081 19.0877 56.0803 19.5384 56.9647C20.3054 58.47 21.5292 59.6938 23.0345 60.4608C23.9189 60.9114 24.9182 61.1242 26.1997 61.2289C26.5426 61.2569 26.9088 61.2774 27.3016 61.2923C27.3635 61.319 27.4308 61.3333 27.4998 61.3333H48.5843H48.6053C50.3932 61.3333 51.7632 61.3333 52.868 61.2497C53.9834 61.1653 54.8649 60.9939 55.6708 60.6324C57.0479 60.0147 58.2221 59.0199 59.0579 57.7631C59.5469 57.0277 59.8609 56.1863 60.1275 55.1C60.3916 54.024 60.6168 52.6728 60.9107 50.9093L60.9142 50.8882L61.8571 45.2306L61.8612 45.2063L61.8612 45.2062C62.1248 43.6245 62.328 42.4051 62.4053 41.4262C62.4833 40.4376 62.4385 39.6411 62.17 38.9182C61.7222 37.7127 60.8662 36.7022 59.7507 36.0624C59.0819 35.6787 58.3035 35.5035 57.3155 35.418C57.2664 35.4137 57.2166 35.4097 57.1662 35.4058C57.1653 34.9026 57.1606 34.583 57.1359 34.3017C56.7974 30.4345 53.7313 27.3684 49.8641 27.0299C49.5158 26.9994 49.1089 26.9994 48.3671 26.9994H48.367H48.3326H44.6582L44.6156 26.9994C41.9782 26.9921 39.5688 25.503 38.3827 23.1473L38.3636 23.1091L38.3633 23.1085L38.3433 23.0685C36.9878 20.3763 34.2342 18.6745 31.22 18.6661L31.1746 18.6661H29.467ZM56.166 35.3558C56.1648 34.8863 56.1599 34.6195 56.1397 34.389C55.8435 31.0051 53.1607 28.3223 49.7769 28.0261C49.4777 27.9999 49.1175 27.9994 48.3326 27.9994H44.6582L44.6128 27.9994C41.5986 27.991 38.845 26.2892 37.4895 23.597L37.4692 23.5564L37.4501 23.5182C36.2641 21.1625 33.8547 19.6734 31.2172 19.6661L31.1746 19.6661H29.467C26.8252 19.6661 25.6147 19.6715 24.6428 19.965C22.3988 20.6426 20.6429 22.3985 19.9653 24.6425C19.6718 25.6144 19.6664 26.8249 19.6664 29.4667V48.8327C19.6664 50.9412 19.6668 52.4925 19.7669 53.718C19.8666 54.9377 20.0625 55.7907 20.4294 56.5107C21.1005 57.8278 22.1713 58.8987 23.4885 59.5698C24.2084 59.9366 25.0614 60.1326 26.2811 60.2322C26.5344 60.2529 26.8016 60.2693 27.0847 60.2824L29.502 45.7783L29.5055 45.7574C29.7994 43.9938 30.0247 42.6426 30.2887 41.5665C30.5553 40.4802 30.8693 39.6388 31.3584 38.9034C32.1941 37.6466 33.3684 36.6519 34.7454 36.0341C35.5513 35.6726 36.4328 35.5012 37.5482 35.4168C38.653 35.3333 40.0229 35.3333 41.8108 35.3333H41.832H53.4728H53.4975C54.5295 35.3333 55.4092 35.3333 56.166 35.3558ZM46.2726 60.3333C46.265 60.3329 46.2574 60.3327 46.2498 60.3327H31.1664C29.9791 60.3327 28.9684 60.3326 28.0931 60.3146L30.4884 45.9427C30.7865 44.1541 31.0059 42.8399 31.2599 41.8049C31.5124 40.7759 31.7913 40.0583 32.191 39.4571C32.9223 38.3574 33.9498 37.487 35.1547 36.9465C35.8135 36.651 36.5672 36.4939 37.6236 36.414C38.6864 36.3336 40.0187 36.3333 41.832 36.3333H53.4728C55.1062 36.3333 56.2992 36.3337 57.2293 36.4142C58.1547 36.4944 58.7664 36.6506 59.2532 36.9298C60.1658 37.4533 60.8662 38.2801 61.2326 39.2664C61.4279 39.7924 61.4815 40.4215 61.4084 41.3475C61.3349 42.2782 61.1392 43.455 60.8707 45.0662L59.9278 50.7238C59.6297 52.5125 59.4103 53.8266 59.1563 54.8616C58.9038 55.8906 58.625 56.6082 58.2252 57.2094C57.4939 58.3091 56.4664 59.1795 55.2615 59.72C54.6027 60.0155 53.8491 60.1726 52.7926 60.2526C51.7298 60.3329 50.3975 60.3333 48.5843 60.3333H46.2726Z" fill="#E2E8F0"/>
<rect x="0.5" y="0.5" width="79" height="79" rx="39.5" stroke="#E9F0F9"/>
<defs>
<linearGradient id="paint0_linear_5423_122320" x1="40" y1="0" x2="40" y2="80" gradientUnits="userSpaceOnUse">
<stop stop-color="#F8FAFC"/>
<stop offset="1" stop-color="white"/>
</linearGradient>
</defs>
</svg>
