<svg width="48" height="48" viewBox="0 0 48 48" fill="none" xmlns="http://www.w3.org/2000/svg">
<g clip-path="url(#clip0_13449_30570)">
<mask id="mask0_13449_30570" style="mask-type:luminance" maskUnits="userSpaceOnUse" x="0" y="0" width="48" height="48">
<path d="M48 0H0V48H48V0Z" fill="white"/>
</mask>
<g mask="url(#mask0_13449_30570)">
<path d="M0 18.432C0 11.9808 0 8.7536 1.256 6.2896C2.36 4.1216 4.1232 2.36 6.2912 1.2544C8.7536 0 11.9808 0 18.432 0H29.568C36.0192 0 39.2464 0 41.7104 1.256C43.8784 2.36 45.64 4.1232 46.7456 6.2912C48.0016 8.7552 48.0016 11.9808 48.0016 18.4336V29.5696C48.0016 36.0208 48.0016 39.248 46.7456 41.712C45.6416 43.88 43.8784 45.6416 41.7104 46.7472C39.2464 48.0032 36.0208 48.0032 29.568 48.0032H18.432C11.9808 48.0032 8.7536 48.0032 6.2896 46.7472C4.1216 45.6432 2.36 43.88 1.2544 41.712C0 39.2464 0 36.0192 0 29.568V18.432Z" fill="white"/>
<path d="M31.8143 14.7645C30.4303 13.5629 28.6991 12.7933 26.8527 12.5565L26.7311 13.5085C28.3935 13.7213 29.9471 14.4141 31.1855 15.4877L31.8143 14.7629V14.7645ZM26.8527 12.5565C25.0063 12.3197 23.1263 12.6253 21.4639 13.4349L21.8847 14.2973C23.3775 13.5709 25.0687 13.2941 26.7311 13.5085L26.8527 12.5565ZM21.4639 13.4349C19.8015 14.2445 18.4303 15.5197 17.5391 17.0973L18.3743 17.5709C19.1679 16.1677 20.3919 15.0269 21.8847 14.2989L21.4639 13.4365V13.4349ZM18.0287 16.8589C17.5471 16.7853 17.0607 16.7485 16.5727 16.7501L16.5759 17.7101C17.0143 17.7101 17.4511 17.7421 17.8847 17.8077L18.0287 16.8589ZM16.5743 16.7501C11.7231 16.7501 7.67993 20.2605 7.67993 24.6941H8.63993C8.63993 20.8957 12.1423 17.7101 16.5743 17.7101V16.7501ZM7.67993 24.6941C7.67993 28.7693 11.1071 32.1165 15.5567 32.5805L15.6559 31.6253C11.5999 31.2029 8.63993 28.1869 8.63993 24.6941H7.67993ZM15.5567 32.5805C15.9695 32.6237 16.3855 32.5085 16.7151 32.2557L16.1295 31.4941C15.9983 31.5949 15.8287 31.6429 15.6559 31.6253L15.5567 32.5805ZM16.7151 32.2557C17.0447 32.0029 17.2607 31.6285 17.3071 31.2157L16.3535 31.1069C16.3375 31.2541 16.2591 31.3949 16.1295 31.4941L16.7151 32.2557ZM17.3071 31.2157C17.3535 30.8013 17.2271 30.3901 16.9583 30.0717L16.2239 30.6893C16.3247 30.8109 16.3695 30.9597 16.3535 31.1069L17.3071 31.2157ZM16.9583 30.0717C16.6911 29.7533 16.3071 29.5549 15.8943 29.5117L15.7951 30.4669C15.9679 30.4845 16.1215 30.5677 16.2239 30.6893L16.9583 30.0717ZM15.8735 29.5101C14.5551 29.4333 13.3183 28.8925 12.3983 27.9965L11.7279 28.6845C12.8159 29.7453 14.2735 30.3789 15.8159 30.4685L15.8719 29.5101H15.8735ZM12.3983 27.9965C11.4799 27.1021 10.9439 25.9165 10.8879 24.6717L9.92953 24.7149C9.99513 26.2093 10.6383 27.6237 11.7279 28.6845L12.3983 27.9965ZM10.8895 24.6925C10.8895 22.0861 13.3855 19.8381 16.5983 19.8381V18.8781C12.9935 18.8781 9.92953 21.4269 9.92953 24.6925H10.8895ZM16.5951 19.8381C17.1407 19.8413 17.6815 19.9101 18.2079 20.0445L18.4447 19.1149C17.8431 18.9613 17.2223 18.8813 16.5999 18.8781L16.5951 19.8381ZM18.2079 20.0445C18.5791 20.1389 18.9727 20.1005 19.3183 19.9341L18.9023 19.0685C18.7615 19.1357 18.5983 19.1517 18.4447 19.1133L18.2079 20.0429V20.0445ZM19.3183 19.9341C19.6639 19.7677 19.9391 19.4829 20.0847 19.1293L19.1983 18.7613C19.1455 18.8909 19.0415 19.0013 18.9007 19.0685L19.3167 19.9341H19.3183ZM20.0831 19.1357C20.5855 17.9677 21.4783 16.9853 22.6303 16.3485L22.1647 15.5085C20.8319 16.2461 19.7887 17.3869 19.1999 18.7565L20.0815 19.1357H20.0831ZM22.6303 16.3485C23.7823 15.7117 25.1231 15.4557 26.4463 15.6237L26.5679 14.6717C25.0463 14.4781 23.4991 14.7725 22.1663 15.5085L22.6319 16.3485H22.6303ZM26.4463 15.6237C27.7679 15.7917 28.9919 16.3741 29.9263 17.2733L30.5919 16.5821C29.5055 15.5357 28.0895 14.8653 26.5663 14.6717L26.4447 15.6237H26.4463ZM29.9263 17.2733C30.8607 18.1741 31.4543 19.3405 31.6191 20.5917L32.5711 20.4669C32.3775 18.9949 31.6799 17.6301 30.5919 16.5821L29.9263 17.2733ZM31.6191 20.5901C31.6703 20.9997 31.8879 21.3677 32.2143 21.6189L32.7999 20.8573C32.6687 20.7565 32.5903 20.6157 32.5711 20.4685L31.6191 20.5885V20.5901ZM32.2143 21.6189C32.5407 21.8701 32.9535 21.9869 33.3631 21.9485L33.2751 20.9933C33.1007 21.0093 32.9295 20.9597 32.7983 20.8589L32.2127 21.6205H32.2143V21.6189ZM33.3199 21.9517C36.0463 21.9517 38.0847 23.7469 38.0847 25.7373H39.0447C39.0447 23.0429 36.3839 20.9917 33.3199 20.9917V21.9517ZM38.0847 25.7373C38.0847 27.7245 36.0255 29.5229 33.2687 29.5229V30.4829C36.3535 30.4829 39.0447 28.4349 39.0447 25.7373H38.0847ZM33.2735 29.5229C33.0623 29.5229 32.8527 29.5597 32.6575 29.6381L33.0127 30.5293C33.0927 30.4973 33.1791 30.4813 33.2655 30.4813L33.2735 29.5213V29.5229ZM32.6575 29.6381C32.4623 29.7165 32.2831 29.8317 32.1327 29.9789L32.8047 30.6653C32.8623 30.6077 32.9343 30.5629 33.0127 30.5309L32.6575 29.6397V29.6381ZM32.1327 29.9789C31.9823 30.1261 31.8639 30.3021 31.7839 30.4973L32.6735 30.8605C32.7023 30.7901 32.7471 30.7229 32.8047 30.6669L32.1327 29.9805V29.9789ZM31.7839 30.4973C31.7039 30.6925 31.6671 30.9005 31.6735 31.1117L32.6335 31.0813C32.6335 31.0061 32.6447 30.9309 32.6735 30.8605L31.7839 30.4973ZM31.6735 31.1037C31.6799 31.5197 31.8575 31.9117 32.1599 32.1965L32.8191 31.4973C32.7007 31.3853 32.6367 31.2381 32.6351 31.0877L31.6751 31.1021L31.6735 31.1037ZM32.1599 32.1965C32.4623 32.4813 32.8639 32.6365 33.2783 32.6365V31.6765C33.1023 31.6765 32.9375 31.6093 32.8175 31.4973L32.1583 32.1965H32.1599ZM33.2783 32.6365C37.6031 32.6365 41.2799 29.6269 41.2799 25.7613H40.3199C40.3199 28.9565 37.2271 31.6765 33.2783 31.6765V32.6365ZM41.2799 25.7565C41.2431 22.1501 38.0895 19.3181 34.1791 18.9277L34.0831 19.8829C37.6367 20.2365 40.2895 22.7709 40.3199 25.7661L41.2799 25.7565ZM34.5983 19.2909C34.1711 17.5421 33.1983 15.9645 31.8143 14.7613L31.1855 15.4861C32.4239 16.5613 33.2879 17.9677 33.6655 19.5181L34.5983 19.2893V19.2909ZM17.9567 17.3309L17.8847 17.8061L18.2111 17.8557L18.3743 17.5677L17.9567 17.3309ZM15.8463 29.9885L15.8959 29.5117H15.8735L15.8463 29.9885ZM10.4095 24.6941H9.92953V24.7149L10.4095 24.6941ZM16.5983 19.3597L16.6015 18.8797V19.3597H16.5983ZM19.6431 18.9501L19.2015 18.7613V18.7677L19.6431 18.9517V18.9501ZM32.0943 20.5341L32.5711 20.4733L32.0959 20.5341H32.0943ZM33.3183 21.4749V20.9949H33.2751L33.3183 21.4749ZM33.2687 30.0077L33.2655 30.4877H33.2687V30.0077ZM32.1519 31.0989L32.6319 31.0909V31.0845L32.1519 31.0989ZM40.7999 25.7645H41.2799V25.7597L40.7999 25.7645ZM34.1311 19.4077L33.6655 19.5213L33.7455 19.8509L34.0831 19.8845L34.1311 19.4061V19.4077Z" fill="#0331FC"/>
<path d="M31.4992 15.1273C32.8096 16.2665 33.728 17.7593 34.1312 19.4073C37.8624 19.7801 40.7664 22.4633 40.8 25.7625C40.8 29.2921 37.416 32.1577 33.2784 32.1577C32.9824 32.1577 32.6992 32.0457 32.488 31.8473C32.2768 31.6489 32.1568 31.3785 32.152 31.0969C32.1472 30.9545 32.1728 30.8121 32.2272 30.6793C32.2816 30.5465 32.3632 30.4249 32.4672 30.3241C32.5712 30.2217 32.696 30.1417 32.8336 30.0873C32.9712 30.0329 33.1184 30.0041 33.2688 30.0057C36.1888 30.0057 38.5648 28.0825 38.5648 25.7401C38.5648 23.3977 36.2144 21.4745 33.32 21.4745C33.0272 21.5017 32.736 21.4185 32.5072 21.2425C32.2784 21.0665 32.1312 20.8121 32.096 20.5337C31.9168 19.1721 31.2704 17.9049 30.2608 16.9321C29.2512 15.9593 27.9312 15.3321 26.5088 15.1513C25.0864 14.9705 23.6416 15.2457 22.4 15.9321C21.1584 16.6201 20.1888 17.6809 19.6448 18.9497C19.544 19.1913 19.3552 19.3881 19.1136 19.5049C18.8704 19.6217 18.592 19.6489 18.3296 19.5817C17.7648 19.4377 17.184 19.3625 16.6 19.3593C13.192 19.3593 10.4112 21.7577 10.4112 24.6937C10.472 26.0633 11.0608 27.3625 12.0656 28.3401C13.0704 29.3177 14.4176 29.9049 15.848 29.9881C16.1408 30.0185 16.4096 30.1593 16.5936 30.3785C16.7776 30.5977 16.864 30.8793 16.832 31.1593C16.8 31.4393 16.6528 31.6969 16.424 31.8729C16.1936 32.0489 15.9008 32.1321 15.608 32.1017C11.3552 31.6585 8.16162 28.4761 8.16162 24.6937C8.16162 20.5785 11.9344 17.2297 16.576 17.2297C17.0384 17.2297 17.5008 17.2633 17.9584 17.3321C18.8016 15.8425 20.0976 14.6329 21.6752 13.8649C23.2528 13.0969 25.0384 12.8057 26.7936 13.0313C28.5488 13.2569 30.1904 13.9865 31.5008 15.1257H31.4992V15.1273Z" fill="#0331FC"/>
<path d="M26.1744 27.5259C26.4832 26.3739 27.6672 25.6891 28.8192 25.9979C29.9712 26.3067 30.656 27.4907 30.3472 28.6427L28.9808 33.7435C28.672 34.8955 27.488 35.5803 26.336 35.2715C25.184 34.9627 24.4992 33.7787 24.808 32.6267L26.1744 27.5259Z" fill="#0331FC"/>
<path d="M19.9007 28.9673C20.2095 27.8153 21.3935 27.1305 22.5455 27.4393C23.6975 27.7481 24.3823 28.9321 24.0735 30.0841L23.4527 32.4025C23.1439 33.5545 21.9599 34.2393 20.8079 33.9305C19.6559 33.6217 18.9711 32.4377 19.2799 31.2857L19.9007 28.9673Z" fill="#8198FD"/>
</g>
</g>
<defs>
<clipPath id="clip0_13449_30570">
<rect width="48" height="48" fill="white"/>
</clipPath>
</defs>
</svg>
