<?xml version="1.0" encoding="UTF-8"?>
<svg id="katman_1" data-name="katman 1" xmlns="http://www.w3.org/2000/svg" viewBox="0 0 210 142.91">
  <defs>
    <style>
      .cls-1 {
        fill: #fff;
      }

      .cls-2 {
        fill: #8198fd;
      }
    </style>
  </defs>
  <path class="cls-1" d="m150.84,14.28c-8.65-7.51-19.47-12.32-31.01-13.8l-.76,5.95c10.39,1.33,20.1,5.66,27.84,12.37l3.93-4.53h0ZM119.83.49c-11.54-1.48-23.29.43-33.68,5.49l2.63,5.39c9.33-4.54,19.9-6.27,30.29-4.93,0,0,.76-5.95.76-5.95Zm-33.68,5.49c-10.39,5.06-18.96,13.03-24.53,22.89l5.22,2.96c4.96-8.77,12.61-15.9,21.94-20.45l-2.63-5.39h0Zm-21.47,21.4c-3.01-.46-6.05-.69-9.1-.68l.02,6c2.74,0,5.47.2,8.18.61,0,0,.9-5.93.9-5.93Zm-9.09-.68c-30.32,0-55.59,21.94-55.59,49.65h6c0-23.74,21.89-43.65,49.59-43.65,0,0,0-6,0-6ZM0,76.35c0,25.47,21.42,46.39,49.23,49.29l.62-5.97c-25.35-2.64-43.85-21.49-43.85-43.32H0Zm49.23,49.29c2.58.27,5.18-.45,7.24-2.03l-3.66-4.76c-.82.63-1.88.93-2.96.82,0,0-.62,5.97-.62,5.97Zm7.24-2.03c2.06-1.58,3.41-3.92,3.7-6.5l-5.96-.68c-.1.92-.59,1.8-1.4,2.42l3.66,4.76Zm3.7-6.5c.29-2.59-.5-5.16-2.18-7.15l-4.59,3.86c.63.76.91,1.69.81,2.61l5.96.68Zm-2.18-7.15c-1.67-1.99-4.07-3.23-6.65-3.5l-.62,5.97c1.08.11,2.04.63,2.68,1.39l4.59-3.86Zm-6.78-3.51c-8.24-.48-15.97-3.86-21.72-9.46l-4.19,4.3c6.8,6.63,15.91,10.59,25.55,11.15l.35-5.99h.01Zm-21.72-9.46c-5.74-5.59-9.09-13-9.44-20.78l-5.99.27c.41,9.34,4.43,18.18,11.24,24.81,0,0,4.19-4.3,4.19-4.3Zm-9.43-20.65c0-16.29,15.6-30.34,35.68-30.34v-6c-22.53,0-41.68,15.93-41.68,36.34,0,0,6,0,6,0Zm35.66-30.34c3.41.02,6.79.45,10.08,1.29l1.48-5.81c-3.76-.96-7.64-1.46-11.53-1.48,0,0-.03,6-.03,6Zm10.08,1.29c2.32.59,4.78.35,6.94-.69l-2.6-5.41c-.88.42-1.9.52-2.86.28l-1.48,5.81h0Zm6.94-.69c2.16-1.04,3.88-2.82,4.79-5.03l-5.54-2.3c-.33.81-.98,1.5-1.86,1.92l2.6,5.41h.01Zm4.78-4.99c3.14-7.3,8.72-13.44,15.92-17.42l-2.91-5.25c-8.33,4.61-14.85,11.74-18.53,20.3l5.51,2.37h.01Zm15.92-17.42c7.2-3.98,15.58-5.58,23.85-4.53l.76-5.95c-9.51-1.21-19.18.63-27.51,5.23l2.91,5.25h-.01Zm23.85-4.53c8.26,1.05,15.91,4.69,21.75,10.31l4.16-4.32c-6.79-6.54-15.64-10.73-25.16-11.94l-.76,5.95h0Zm21.75,10.31c5.84,5.63,9.55,12.92,10.58,20.74l5.95-.78c-1.21-9.2-5.57-17.73-12.37-24.28,0,0-4.16,4.32-4.16,4.32Zm10.58,20.73c.32,2.56,1.68,4.86,3.72,6.43l3.66-4.76c-.82-.63-1.31-1.51-1.43-2.43l-5.95.75h0Zm3.72,6.43c2.04,1.57,4.62,2.3,7.18,2.06l-.55-5.97c-1.09.1-2.16-.21-2.98-.84l-3.66,4.76h.01Zm6.91,2.08c17.04,0,29.78,11.22,29.78,23.66h6c0-16.84-16.63-29.66-35.78-29.66v6Zm29.78,23.66c0,12.42-12.87,23.66-30.1,23.66v6c19.28,0,36.1-12.8,36.1-29.66h-6,0Zm-30.07,23.66c-1.32,0-2.63.23-3.85.72l2.22,5.57c.5-.2,1.04-.3,1.58-.3l.05-6h0Zm-3.85.72c-1.22.49-2.34,1.21-3.28,2.13l4.2,4.29c.36-.36.81-.64,1.3-.84l-2.22-5.57h0Zm-3.28,2.13c-.94.92-1.68,2.02-2.18,3.24l5.56,2.27c.18-.44.46-.86.82-1.21l-4.2-4.29h0Zm-2.18,3.24c-.5,1.22-.73,2.52-.69,3.84l6-.19c0-.47.07-.94.25-1.38l-5.56-2.27Zm-.69,3.79c.04,2.6,1.15,5.05,3.04,6.83l4.12-4.37c-.74-.7-1.14-1.62-1.15-2.56l-6,.09h0Zm3.04,6.83c1.89,1.78,4.4,2.75,6.99,2.75v-6c-1.1,0-2.13-.42-2.88-1.12l-4.12,4.37h0Zm6.99,2.75c27.03,0,50.01-18.81,50.01-42.97h-6c0,19.97-19.33,36.97-44.01,36.97v6Zm50.01-43c-.23-22.54-19.94-40.24-44.38-42.68l-.6,5.97c22.21,2.21,38.79,18.05,38.98,36.77l6-.06h0Zm-41.76-40.41c-2.67-10.93-8.75-20.79-17.4-28.31l-3.93,4.53c7.74,6.72,13.14,15.51,15.5,25.2l5.83-1.43h0ZM119.45,3.46l.38-2.98-.38,2.98Zm-55.22,26.88l-.45,2.97,2.04.31,1.02-1.8s-2.61-1.48-2.61-1.48Zm-8.64-.64v3h0v-3Zm-6.05,92.96l-.31,2.98h0l.31-2.98Zm5.1-1.43l1.83,2.38h0l-1.83-2.38Zm2.55-4.46l-2.98-.34h0l2.98.34Zm-1.49-4.88l-2.3,1.93h0l2.3-1.93Zm-4.66-2.44l.31-2.98h-.14s-.17,2.98-.17,2.98Zm-23.64-10.3l-2.09,2.15,2.09-2.15Zm-10.34-22.79h-3v.13l3-.13Zm38.68-33.34l.02-3h0v3h-.02Zm10.81,1.39l-.74,2.91h0l.74-2.91Zm4.9-.48l-1.3-2.7,1.3,2.7Zm3.32-3.47l-2.76-1.18v.04s2.76,1.15,2.76,1.15h0Zm42.9-23.74l.38-2.98-.38,2.98Zm23.45,11.13l-2.08,2.16,2.08-2.16Zm11.47,22.51l2.98-.38h0s-2.97.38-2.97.38h0Zm2.57,4.43l-1.83,2.38h0l1.83-2.38Zm5.08,1.45v-3h-.27l.27,3Zm-.31,53.33l-.02,3h.02v-3h0Zm-2.72.51l-1.11-2.79h0l1.11,2.79Zm-2.29,1.48l-2.1-2.14h0l2.1,2.14Zm-1.5,2.22l-2.78-1.13h0l2.78,1.13Zm-.47,2.61l3-.05v-.04l-3,.09Zm2.1,4.69l2.06-2.18h0l-2.06,2.18Zm4.94,1.94v-3h0v3Zm47.01-39.97h3v-.03l-3,.03Zm-58.13-66.48l-1.97,2.27,1.97-2.27Zm16.45,26.75l-2.91.71.5,2.06,2.11.21.3-2.99h0Z"/>
  <path class="cls-1" d="m165.32,43.3c-2.52-10.31-8.26-19.64-16.45-26.75-8.19-7.12-18.45-11.68-29.42-13.09s-22.12.41-31.99,5.21c-9.87,4.8-17.97,12.36-23.23,21.67-2.86-.44-5.74-.65-8.64-.64C26.58,29.7,3,50.62,3,76.35c0,23.65,19.96,43.53,46.54,46.3,1.83.19,3.67-.32,5.1-1.43s2.35-2.71,2.55-4.46-.34-3.51-1.49-4.88c-1.15-1.37-2.83-2.25-4.66-2.44-8.94-.52-17.36-4.19-23.64-10.3-6.28-6.11-9.96-14.23-10.34-22.79,0-18.35,17.37-33.34,38.68-33.34,3.65.02,7.28.48,10.81,1.39,1.64.42,3.38.25,4.9-.48,1.52-.73,2.7-1.97,3.32-3.47,3.41-7.93,9.46-14.57,17.22-18.86,7.76-4.3,16.79-6.01,25.68-4.88s17.13,5.04,23.45,11.13c6.32,6.09,10.35,14,11.47,22.51.22,1.74,1.14,3.33,2.57,4.43,1.43,1.1,3.25,1.62,5.08,1.45,18.1,0,32.78,12.02,32.78,26.66s-14.84,26.66-33.1,26.66c-.93,0-1.86.17-2.72.51-.86.34-1.64.85-2.29,1.48-.65.64-1.16,1.39-1.5,2.22s-.5,1.72-.47,2.61c.03,1.77.78,3.45,2.1,4.69,1.32,1.24,3.09,1.94,4.94,1.94,25.86,0,47.01-17.91,47.01-39.97-.21-20.63-18.36-37.4-41.68-39.72h0Z"/>
  <path class="cls-1" d="m115.59,94.04c1.93-7.2,9.33-11.48,16.53-9.55s11.48,9.33,9.55,16.53l-8.54,31.88c-1.93,7.2-9.33,11.48-16.53,9.55s-11.48-9.33-9.55-16.53c0,0,8.54-31.88,8.54-31.88Z"/>
  <path class="cls-2" d="m76.38,103.04c1.93-7.2,9.33-11.48,16.53-9.55s11.48,9.33,9.55,16.53l-3.88,14.49c-1.93,7.2-9.33,11.48-16.53,9.55s-11.48-9.33-9.55-16.53l3.88-14.49Z"/>
</svg>