<?xml version="1.0" encoding="UTF-8"?>
<svg id="katman_1" data-name="katman 1" xmlns="http://www.w3.org/2000/svg" viewBox="0 0 484.01 70">
  <defs>
    <style>
      .cls-1 {
        fill: #0f172a;
      }
    </style>
  </defs>
  <path class="cls-1" d="m.01,35.53C.01,28.69,1.32,22.69,3.94,17.52c2.69-5.23,6.46-9.26,11.32-12.1,4.92-2.9,10.65-4.36,17.17-4.36,5.05,0,9.59.97,13.62,2.9,4.09,1.94,7.42,4.71,9.98,8.33,2.56,3.55,4.19,7.68,4.89,12.39h-11.03c-1.09-4.32-3.2-7.71-6.33-10.17-3.13-2.45-7-3.68-11.61-3.68-4.16,0-7.8,1.07-10.94,3.2-3.13,2.07-5.53,4.97-7.2,8.71-1.66,3.68-2.49,7.94-2.49,12.78s.83,9.04,2.49,12.78c1.66,3.74,4.06,6.68,7.2,8.81,3.13,2.07,6.78,3.1,10.94,3.1,4.61,0,8.44-1.23,11.51-3.68,3.13-2.45,5.24-5.84,6.33-10.17h11.03c-.7,4.78-2.33,8.94-4.89,12.49-2.49,3.55-5.76,6.29-9.79,8.23-4.03,1.94-8.6,2.9-13.72,2.9-6.52,0-12.25-1.42-17.17-4.26-4.86-2.84-8.63-6.84-11.32-12.01-2.62-5.23-3.93-11.3-3.93-18.2v.02Z"/>
  <path class="cls-1" d="m90.58,61.09c4.35,0,7.83-1.52,10.46-4.55,2.69-3.1,4.03-7.07,4.03-11.91s-1.34-8.78-4.03-11.81c-2.62-3.1-6.11-4.65-10.46-4.65s-7.83,1.55-10.46,4.65c-2.62,3.03-3.93,6.97-3.93,11.81s1.31,8.81,3.93,11.91c2.62,3.03,6.11,4.55,10.46,4.55Zm0,8.91c-4.92,0-9.31-1.03-13.14-3.1-3.77-2.13-6.72-5.1-8.83-8.91-2.05-3.87-3.07-8.33-3.07-13.36s1.02-9.36,3.07-13.17c2.11-3.87,5.05-6.87,8.83-9,3.84-2.13,8.22-3.2,13.14-3.2s9.27,1.07,13.05,3.2c3.84,2.13,6.78,5.13,8.83,9,2.11,3.81,3.17,8.2,3.17,13.17s-1.06,9.49-3.17,13.36c-2.05,3.81-4.99,6.78-8.83,8.91-3.77,2.07-8.12,3.1-13.05,3.1Z"/>
  <path class="cls-1" d="m147.94,19.27c5.82,0,10.55,1.81,14.2,5.42,3.71,3.61,5.56,9.42,5.56,17.43v27.3h-10.46v-26.72c0-4.71-.99-8.29-2.97-10.75-1.98-2.45-4.89-3.68-8.73-3.68-4.09,0-7.32,1.45-9.69,4.36-2.3,2.84-3.45,6.78-3.45,11.81v24.98h-10.36V19.85h9.02l1.15,6.49c3.71-4.71,8.95-7.07,15.73-7.07h0Z"/>
  <path class="cls-1" d="m178.37,29.05h-8.54v-9.2h8.54V6h10.46v13.85h11.8v9.2h-11.8v25.85c0,1.94.38,3.32,1.15,4.16.77.77,2.08,1.16,3.93,1.16h7.87v9.2h-9.98c-4.67,0-8.09-1.1-10.27-3.29-2.11-2.19-3.17-5.58-3.17-10.17v-26.92h.01Z"/>
  <path class="cls-1" d="m240.17,39.21c-.45-3.61-1.89-6.42-4.32-8.42-2.37-2.07-5.37-3.1-9.02-3.1-3.39,0-6.33,1.07-8.83,3.2-2.43,2.07-3.84,4.84-4.22,8.33h26.39Zm-37.61,5.52c0-5.1.99-9.55,2.97-13.36,2.05-3.87,4.86-6.84,8.44-8.91,3.65-2.13,7.8-3.2,12.47-3.2s8.89.97,12.47,2.9c3.65,1.94,6.49,4.68,8.54,8.23,2.11,3.55,3.2,7.71,3.26,12.49,0,1.29-.1,2.61-.29,3.97h-37.03v.58c.26,4.32,1.6,7.75,4.03,10.26,2.43,2.52,5.66,3.78,9.69,3.78,3.2,0,5.88-.74,8.06-2.23,2.17-1.55,3.61-3.71,4.32-6.49h10.36c-.9,5.03-3.33,9.17-7.29,12.39-3.9,3.23-8.79,4.84-14.68,4.84-5.12,0-9.59-1.03-13.43-3.1-3.77-2.13-6.72-5.1-8.83-8.91-2.05-3.81-3.07-8.23-3.07-13.26v.02Z"/>
  <path class="cls-1" d="m283.09,19.27c5.82,0,10.55,1.81,14.2,5.42,3.71,3.61,5.56,9.42,5.56,17.43v27.3h-10.46v-26.72c0-4.71-.99-8.29-2.97-10.75-1.98-2.45-4.89-3.68-8.73-3.68-4.09,0-7.32,1.45-9.69,4.36-2.3,2.84-3.45,6.78-3.45,11.81v24.98h-10.36V19.85h9.02l1.15,6.49c3.71-4.71,8.95-7.07,15.73-7.07Z"/>
  <path class="cls-1" d="m313.52,29.05h-8.54v-9.2h8.54V6h10.46v13.85h11.8v9.2h-11.8v25.85c0,1.94.38,3.32,1.15,4.16.77.77,2.08,1.16,3.93,1.16h7.87v9.2h-9.98c-4.67,0-8.09-1.1-10.27-3.29-2.11-2.19-3.17-5.58-3.17-10.17v-26.92h.01Z"/>
  <path class="cls-1" d="m367.72,19.85v9.78h-4.61c-4.29,0-7.39,1.42-9.31,4.26-1.92,2.78-2.88,6.33-2.88,10.65v24.88h-10.36V19.85h9.21l1.15,7.46c1.41-2.32,3.23-4.13,5.47-5.42,2.24-1.36,5.24-2.03,9.02-2.03h2.31Z"/>
  <path class="cls-1" d="m388.26,61.87c4.29,0,7.61-1.16,9.98-3.49,2.43-2.32,3.68-5.42,3.74-9.29v-1.74h-12.86c-3.2,0-5.66.65-7.39,1.94-1.73,1.23-2.59,3.07-2.59,5.52,0,2.13.8,3.84,2.4,5.13,1.66,1.29,3.9,1.94,6.72,1.94h0Zm3.36-42.6c6.59,0,11.67,1.55,15.25,4.65s5.37,7.52,5.37,13.26v32.24h-9.02l-.86-7.07c-1.85,2.45-4.06,4.36-6.62,5.71-2.49,1.29-5.56,1.94-9.21,1.94-5.44,0-9.79-1.29-13.05-3.87-3.26-2.58-4.89-6.13-4.89-10.65,0-5.1,1.79-9,5.37-11.72,3.65-2.78,8.89-4.16,15.73-4.16h12.28v-3c0-2.78-.96-4.94-2.88-6.49-1.92-1.61-4.57-2.42-7.96-2.42-3.01,0-5.5.65-7.48,1.94-1.92,1.29-3.07,3.07-3.45,5.33h-10.17c.51-4.97,2.69-8.81,6.52-11.52,3.84-2.78,8.86-4.16,15.06-4.16h.01Z"/>
  <path class="cls-1" d="m419.74,19.85h10.36v49.57h-10.36V19.85Zm5.18-19.85c1.79,0,3.29.61,4.51,1.84,1.22,1.16,1.82,2.65,1.82,4.45s-.61,3.32-1.82,4.55c-1.22,1.16-2.72,1.74-4.51,1.74s-3.29-.58-4.51-1.74c-1.22-1.23-1.82-2.74-1.82-4.55s.61-3.29,1.82-4.45C421.63.61,423.13,0,424.92,0Z"/>
  <path class="cls-1" d="m464.25,19.27c5.82,0,10.55,1.81,14.2,5.42,3.71,3.61,5.56,9.42,5.56,17.43v27.3h-10.46v-26.72c0-4.71-.99-8.29-2.97-10.75-1.98-2.45-4.89-3.68-8.73-3.68-4.09,0-7.32,1.45-9.69,4.36-2.3,2.84-3.45,6.78-3.45,11.81v24.98h-10.36V19.85h9.02l1.15,6.49c3.71-4.71,8.95-7.07,15.73-7.07Z"/>
</svg>