<?xml version="1.0" encoding="UTF-8"?>
<svg id="katman_1" data-name="katman 1" xmlns="http://www.w3.org/2000/svg" xmlns:xlink="http://www.w3.org/1999/xlink" viewBox="0 0 636 120">
  <defs>
    <style>
      .cls-1, .cls-2, .cls-3 {
        fill: none;
      }

      .cls-2 {
        clip-path: url(#clippath-1);
      }

      .cls-4 {
        fill: #0331fc;
      }

      .cls-5 {
        fill: #fff;
      }

      .cls-6 {
        fill: #8198fd;
      }

      .cls-3 {
        clip-path: url(#clippath);
      }
    </style>
    <clipPath id="clippath">
      <rect class="cls-1" width="636" height="120"/>
    </clipPath>
    <clipPath id="clippath-1">
      <rect class="cls-1" width="636" height="120"/>
    </clipPath>
  </defs>
  <g class="cls-3">
    <g>
      <path class="cls-5" d="m0,46.08C0,29.95,0,21.88,3.14,15.72c2.76-5.42,7.17-9.82,12.59-12.59C21.88,0,29.95,0,46.08,0h27.84c16.13,0,24.2,0,30.36,3.14,5.42,2.76,9.82,7.17,12.59,12.59,3.14,6.16,3.14,14.22,3.14,30.36v27.84c0,16.13,0,24.2-3.14,30.36-2.76,5.42-7.17,9.82-12.59,12.59-6.16,3.14-14.22,3.14-30.36,3.14h-27.84c-16.13,0-24.2,0-30.36-3.14-5.42-2.76-9.82-7.17-12.59-12.59C-.01,98.13-.01,90.06-.01,73.93v-27.84h.01Z"/>
      <path class="cls-4" d="m85.33,48.52l-1.16.28.2.82.84.08.12-1.2h0v.02Zm16.67,15.89h1.2-1.2Zm-21.62,13.34l1.2-.02h0v-.02s-1.2.04-1.2.04Zm2.79-2.73v1.2h0v-1.2Zm.12-21.33v-1.2h-.11l.11,1.2Zm-3.06-2.35l1.19-.15h0l-1.19.15h0Zm-31.13-3.96l-1.1-.47h0v.02l1.11.46h-.01Zm-7.61,1.02v-1.2,1.2h0Zm-15.47,13.34h-1.2v.05l1.2-.05Zm13.59,13.24l.12-1.19h-.06l-.07,1.19h.01Zm5.28-31.64l-.18,1.19.82.12.41-.72-1.04-.59h0Zm41.6,4.9c-1.07-4.37-3.5-8.32-6.96-11.32l-1.57,1.81c3.1,2.69,5.26,6.2,6.2,10.08l2.33-.57h0Zm16.7,16.16c-.09-9.02-7.98-16.1-17.75-17.07l-.24,2.39c8.88.88,15.52,7.22,15.59,14.71l2.4-.02h0Zm-20,17.2c10.81,0,20-7.52,20-17.19h-2.4c0,7.99-7.73,14.79-17.6,14.79v2.4Zm-2.8-1.1c.76.71,1.76,1.1,2.8,1.1v-2.4c-.44,0-.85-.17-1.15-.45l-1.65,1.75h0Zm-1.22-2.73c.02,1.04.46,2.02,1.22,2.73l1.65-1.75c-.3-.28-.46-.65-.46-1.02l-2.4.04h-.01Zm.28-1.52c-.2.49-.29,1.01-.28,1.54l2.4-.08c0-.19.03-.38.1-.55,0,0-2.22-.91-2.22-.91Zm.87-1.3c-.38.37-.67.81-.87,1.3l2.22.91c.07-.18.18-.34.33-.48l-1.68-1.72h0Zm1.31-.85c-.49.2-.94.48-1.31.85l1.68,1.72c.14-.14.32-.26.52-.34l-.89-2.23h0Zm1.54-.29c-.53,0-1.05.09-1.54.29l.89,2.23c.2-.08.42-.12.63-.12l.02-2.4h0Zm12.03-9.46c0,4.97-5.15,9.46-12.04,9.46v2.4c7.71,0,14.44-5.12,14.44-11.86h-2.4Zm-11.91-9.46c6.82,0,11.91,4.49,11.91,9.46h2.4c0-6.74-6.65-11.86-14.31-11.86,0,0,0,2.4,0,2.4Zm-2.76-.83c.82.63,1.85.92,2.87.82l-.22-2.39c-.44.04-.86-.08-1.19-.34l-1.46,1.9h0Zm-1.49-2.57c.13,1.02.67,1.94,1.49,2.57l1.46-1.9c-.33-.25-.52-.6-.57-.97l-2.38.3h0Zm-4.23-8.29c2.34,2.25,3.82,5.17,4.23,8.3l2.38-.31c-.48-3.68-2.23-7.09-4.95-9.71l-1.66,1.73h0Zm-8.7-4.12c3.3.42,6.36,1.88,8.7,4.12l1.66-1.73c-2.72-2.62-6.26-4.29-10.06-4.78l-.3,2.38h0Zm-9.54,1.81c2.88-1.59,6.23-2.23,9.54-1.81l.3-2.38c-3.8-.48-7.67.25-11,2.09l1.16,2.1h0Zm-6.37,6.97c1.26-2.92,3.49-5.38,6.37-6.97l-1.16-2.1c-3.33,1.84-5.94,4.7-7.41,8.12l2.2.95h0Zm-1.91,2c.86-.42,1.55-1.13,1.92-2.01l-2.22-.92c-.13.32-.39.6-.74.77l1.04,2.16h0Zm-2.78.28c.93.24,1.91.14,2.78-.28l-1.04-2.16c-.35.17-.76.21-1.14.11l-.59,2.32h0Zm-4.03-.52c1.36,0,2.72.18,4.03.52l.59-2.32c-1.5-.38-3.06-.58-4.61-.59v2.4h0Zm-14.26,12.14c0-6.52,6.24-12.14,14.27-12.14v-2.4c-9.01,0-16.67,6.37-16.67,14.54,0,0,2.4,0,2.4,0Zm3.77,8.26c-2.3-2.24-3.64-5.2-3.78-8.31l-2.4.11c.16,3.74,1.77,7.27,4.5,9.92l1.68-1.72Zm8.69,3.78c-3.3-.19-6.39-1.54-8.69-3.78l-1.68,1.72c2.72,2.65,6.36,4.24,10.22,4.46l.14-2.4h0Zm2.71,1.4c-.67-.8-1.63-1.29-2.66-1.4l-.25,2.39c.43.04.82.25,1.07.56l1.84-1.54h0Zm.87,2.86c.12-1.04-.2-2.06-.87-2.86l-1.84,1.54c.25.3.36.68.32,1.04l2.38.27h0Zm-1.48,2.6c.82-.63,1.36-1.57,1.48-2.6l-2.38-.27c-.04.37-.24.72-.56.97,0,0,1.46,1.9,1.46,1.9Zm-2.9.81c1.03.11,2.07-.18,2.9-.81l-1.46-1.9c-.33.25-.75.37-1.18.33l-.25,2.39h-.01Zm-19.69-19.72c0,10.19,8.57,18.56,19.69,19.72l.25-2.39c-10.14-1.06-17.54-8.6-17.54-17.33h-2.4Zm22.24-19.86c-12.13,0-22.24,8.78-22.24,19.86h2.4c0-9.5,8.76-17.46,19.84-17.46v-2.4Zm3.64.27c-1.2-.18-2.42-.28-3.64-.27v2.4c1.1,0,2.2.08,3.28.24,0,0,.36-2.37.36-2.37Zm8.59-8.56c-4.16,2.02-7.58,5.21-9.81,9.16l2.09,1.18c1.98-3.51,5.04-6.36,8.78-8.18l-1.05-2.16h0Zm13.47-2.2c-4.62-.59-9.32.17-13.47,2.2l1.05,2.16c3.73-1.82,7.96-2.51,12.12-1.97l.3-2.38h0Zm12.4,5.52c-3.46-3-7.79-4.93-12.4-5.52l-.3,2.38c4.16.53,8.04,2.26,11.14,4.95l1.57-1.81h0Z"/>
      <path class="cls-4" d="m78.75,37.82c3.28,2.85,5.57,6.58,6.58,10.7,9.33.93,16.59,7.64,16.67,15.89,0,8.82-8.46,15.99-18.8,15.99-.74,0-1.45-.28-1.98-.78-.53-.5-.83-1.17-.84-1.88-.01-.36.05-.71.19-1.04s.34-.64.6-.89c.26-.26.57-.46.92-.59.34-.14.71-.21,1.09-.2,7.3,0,13.24-4.81,13.24-10.66s-5.88-10.66-13.11-10.66c-.73.07-1.46-.14-2.03-.58-.57-.44-.94-1.08-1.03-1.77-.45-3.4-2.06-6.57-4.59-9-2.52-2.43-5.82-4-9.38-4.45-3.56-.45-7.17.24-10.27,1.95-3.1,1.72-5.53,4.37-6.89,7.54-.25.6-.72,1.1-1.33,1.39s-1.3.36-1.96.19c-1.41-.36-2.86-.55-4.32-.56-8.52,0-15.47,6-15.47,13.34.15,3.42,1.62,6.67,4.14,9.12,2.52,2.45,5.88,3.91,9.46,4.12.73.08,1.4.43,1.86.98s.68,1.25.6,1.95-.45,1.34-1.02,1.78c-.58.44-1.31.65-2.04.57-10.63-1.11-18.62-9.06-18.62-18.52,0-10.29,9.43-18.66,21.04-18.66,1.16,0,2.31.08,3.46.26,2.11-3.72,5.35-6.75,9.29-8.67,3.94-1.92,8.41-2.65,12.8-2.08,4.39.56,8.49,2.39,11.77,5.24h0l-.03-.02Z"/>
      <path class="cls-4" d="m65.44,68.82c.77-2.88,3.73-4.59,6.61-3.82,2.88.77,4.59,3.73,3.82,6.61l-3.42,12.75c-.77,2.88-3.73,4.59-6.61,3.82-2.88-.77-4.59-3.73-3.82-6.61l3.42-12.75Z"/>
      <path class="cls-6" d="m49.75,72.42c.77-2.88,3.73-4.59,6.61-3.82s4.59,3.73,3.82,6.61l-1.55,5.8c-.77,2.88-3.73,4.59-6.61,3.82s-4.59-3.73-3.82-6.61l1.55-5.8Z"/>
    </g>
  </g>
  <g class="cls-2">
    <g>
      <path class="cls-5" d="m152,60.53c0-6.84,1.31-12.84,3.93-18.01,2.69-5.23,6.46-9.26,11.32-12.1,4.92-2.9,10.65-4.36,17.17-4.36,5.05,0,9.59.97,13.62,2.9,4.09,1.94,7.42,4.71,9.98,8.33,2.56,3.55,4.19,7.68,4.89,12.39h-11.03c-1.09-4.32-3.2-7.71-6.33-10.17-3.13-2.45-7-3.68-11.61-3.68-4.16,0-7.8,1.07-10.94,3.2-3.13,2.07-5.53,4.97-7.2,8.71-1.66,3.68-2.49,7.94-2.49,12.78s.83,9.04,2.49,12.78,4.06,6.68,7.2,8.81c3.13,2.07,6.78,3.1,10.94,3.1,4.61,0,8.44-1.23,11.51-3.68,3.13-2.45,5.24-5.84,6.33-10.17h11.03c-.7,4.78-2.33,8.94-4.89,12.49-2.49,3.55-5.76,6.29-9.79,8.23s-8.6,2.9-13.72,2.9c-6.52,0-12.25-1.42-17.17-4.26-4.86-2.84-8.63-6.84-11.32-12.01-2.62-5.23-3.93-11.3-3.93-18.2v.02h.01Z"/>
      <path class="cls-5" d="m242.57,95c-4.92,0-9.31-1.03-13.14-3.1-3.77-2.13-6.72-5.1-8.83-8.91-2.05-3.87-3.07-8.33-3.07-13.36s1.02-9.36,3.07-13.17c2.11-3.87,5.05-6.87,8.83-9,3.84-2.13,8.22-3.2,13.14-3.2s9.27,1.07,13.05,3.2c3.84,2.13,6.78,5.13,8.83,9,2.11,3.81,3.17,8.2,3.17,13.17s-1.06,9.49-3.17,13.36c-2.05,3.81-4.99,6.78-8.83,8.91-3.77,2.07-8.12,3.1-13.05,3.1Zm0-8.91c4.35,0,7.83-1.52,10.46-4.55,2.69-3.1,4.03-7.07,4.03-11.91s-1.34-8.78-4.03-11.81c-2.62-3.1-6.11-4.65-10.46-4.65s-7.83,1.55-10.46,4.65c-2.62,3.03-3.93,6.97-3.93,11.81s1.31,8.81,3.93,11.91c2.62,3.03,6.11,4.55,10.46,4.55h0Z"/>
      <path class="cls-5" d="m299.93,44.27c5.82,0,10.55,1.81,14.2,5.42,3.71,3.61,5.56,9.42,5.56,17.43v27.3h-10.46v-26.72c0-4.71-.99-8.29-2.97-10.75-1.98-2.45-4.89-3.68-8.73-3.68-4.09,0-7.32,1.45-9.69,4.36-2.3,2.84-3.45,6.78-3.45,11.81v24.98h-10.36v-49.57h9.02l1.15,6.49c3.71-4.71,8.95-7.07,15.73-7.07Z"/>
      <path class="cls-5" d="m330.36,54.05h-8.54v-9.2h8.54v-13.85h10.46v13.85h11.8v9.2h-11.8v25.85c0,1.94.38,3.32,1.15,4.16.77.77,2.08,1.16,3.93,1.16h7.87v9.2h-9.98c-4.67,0-8.09-1.1-10.27-3.29-2.11-2.19-3.17-5.58-3.17-10.17v-26.92h.01Z"/>
      <path class="cls-5" d="m354.55,69.73c0-5.1.99-9.55,2.97-13.36,2.05-3.87,4.86-6.84,8.44-8.91,3.65-2.13,7.8-3.2,12.47-3.2s8.89.97,12.47,2.9c3.65,1.94,6.49,4.68,8.54,8.23,2.11,3.55,3.2,7.71,3.26,12.49,0,1.29-.1,2.61-.29,3.97h-37.03v.58c.26,4.32,1.6,7.75,4.03,10.26,2.43,2.52,5.66,3.78,9.69,3.78,3.2,0,5.88-.74,8.06-2.23,2.17-1.55,3.61-3.71,4.32-6.49h10.36c-.9,5.03-3.33,9.17-7.29,12.39-3.9,3.23-8.79,4.84-14.68,4.84-5.12,0-9.59-1.03-13.43-3.1-3.77-2.13-6.72-5.1-8.83-8.91-2.05-3.81-3.07-8.23-3.07-13.26v.02h0Zm37.61-5.52c-.45-3.61-1.89-6.42-4.32-8.42-2.37-2.07-5.37-3.1-9.02-3.1-3.39,0-6.33,1.07-8.83,3.2-2.43,2.07-3.84,4.84-4.22,8.33h26.39Z"/>
      <path class="cls-5" d="m435.08,44.27c5.82,0,10.55,1.81,14.2,5.42,3.71,3.61,5.56,9.42,5.56,17.43v27.3h-10.46v-26.72c0-4.71-.99-8.29-2.97-10.75-1.98-2.45-4.89-3.68-8.73-3.68-4.09,0-7.32,1.45-9.69,4.36-2.3,2.84-3.45,6.78-3.45,11.81v24.98h-10.36v-49.57h9.02l1.15,6.49c3.71-4.71,8.95-7.07,15.73-7.07Z"/>
      <path class="cls-5" d="m465.51,54.05h-8.54v-9.2h8.54v-13.85h10.46v13.85h11.8v9.2h-11.8v25.85c0,1.94.38,3.32,1.15,4.16.77.77,2.08,1.16,3.93,1.16h7.87v9.2h-9.98c-4.67,0-8.09-1.1-10.27-3.29-2.11-2.19-3.17-5.58-3.17-10.17v-26.92h.01Z"/>
      <path class="cls-5" d="m519.71,44.85v9.78h-4.61c-4.29,0-7.39,1.42-9.31,4.26-1.92,2.78-2.88,6.33-2.88,10.65v24.88h-10.36v-49.57h9.21l1.15,7.46c1.41-2.32,3.23-4.13,5.47-5.42,2.24-1.36,5.24-2.03,9.02-2.03h2.31Z"/>
      <path class="cls-5" d="m543.61,44.27c6.59,0,11.67,1.55,15.25,4.65,3.58,3.1,5.37,7.52,5.37,13.26v32.24h-9.02l-.86-7.07c-1.85,2.45-4.06,4.36-6.62,5.71-2.49,1.29-5.56,1.94-9.21,1.94-5.44,0-9.79-1.29-13.05-3.87s-4.89-6.13-4.89-10.65c0-5.1,1.79-9,5.37-11.72,3.65-2.78,8.89-4.16,15.73-4.16h12.28v-3c0-2.78-.96-4.94-2.88-6.49-1.92-1.61-4.57-2.42-7.96-2.42-3.01,0-5.5.65-7.48,1.94-1.92,1.29-3.07,3.07-3.45,5.33h-10.17c.51-4.97,2.69-8.81,6.52-11.52,3.84-2.78,8.86-4.16,15.06-4.16h.01Zm-3.36,42.6c4.29,0,7.61-1.16,9.98-3.49,2.43-2.32,3.68-5.42,3.74-9.29v-1.74h-12.86c-3.2,0-5.66.65-7.39,1.94-1.73,1.23-2.59,3.07-2.59,5.52,0,2.13.8,3.84,2.4,5.13,1.66,1.29,3.9,1.94,6.72,1.94h0Z"/>
      <path class="cls-5" d="m576.91,25c1.79,0,3.29.61,4.51,1.84,1.22,1.16,1.82,2.65,1.82,4.45s-.61,3.32-1.82,4.55c-1.22,1.16-2.72,1.74-4.51,1.74s-3.29-.58-4.51-1.74c-1.22-1.23-1.82-2.74-1.82-4.55s.61-3.29,1.82-4.45c1.22-1.23,2.72-1.84,4.51-1.84Zm-5.18,19.85h10.36v49.57h-10.36v-49.57Z"/>
      <path class="cls-5" d="m616.24,44.27c5.82,0,10.55,1.81,14.2,5.42,3.71,3.61,5.56,9.42,5.56,17.43v27.3h-10.46v-26.72c0-4.71-.99-8.29-2.97-10.75-1.98-2.45-4.89-3.68-8.73-3.68-4.09,0-7.32,1.45-9.69,4.36-2.3,2.84-3.45,6.78-3.45,11.81v24.98h-10.36v-49.57h9.02l1.15,6.49c3.71-4.71,8.95-7.07,15.73-7.07h0Z"/>
    </g>
  </g>
</svg>